<?xml version="1.0" encoding="utf-8" standalone="no"?>
<!DOCTYPE svg PUBLIC "-//W3C//DTD SVG 1.1//EN"
  "http://www.w3.org/Graphics/SVG/1.1/DTD/svg11.dtd">
<svg xmlns:xlink="http://www.w3.org/1999/xlink" width="726.94375pt" height="503.39625pt" viewBox="0 0 726.94375 503.39625" xmlns="http://www.w3.org/2000/svg" version="1.1">
 <metadata>
  <rdf:RDF xmlns:dc="http://purl.org/dc/elements/1.1/" xmlns:cc="http://creativecommons.org/ns#" xmlns:rdf="http://www.w3.org/1999/02/22-rdf-syntax-ns#">
   <cc:Work>
    <dc:type rdf:resource="http://purl.org/dc/dcmitype/StillImage"/>
    <dc:date>2023-02-24T16:24:43.497942</dc:date>
    <dc:format>image/svg+xml</dc:format>
    <dc:creator>
     <cc:Agent>
      <dc:title>Matplotlib v3.6.2, https://matplotlib.org/</dc:title>
     </cc:Agent>
    </dc:creator>
   </cc:Work>
  </rdf:RDF>
 </metadata>
 <defs>
  <style type="text/css">*{stroke-linejoin: round; stroke-linecap: butt}</style>
 </defs>
 <g id="figure_1">
  <g id="patch_1">
   <path d="M 0 503.39625 
L 726.94375 503.39625 
L 726.94375 0 
L 0 0 
z
" style="fill: #ffffff"/>
  </g>
  <g id="axes_1">
   <g id="patch_2">
    <path d="M 50.14375 465.84 
L 719.74375 465.84 
L 719.74375 22.32 
L 50.14375 22.32 
z
" style="fill: #ffffff"/>
   </g>
   <g id="matplotlib.axis_1">
    <g id="xtick_1">
     <g id="line2d_1">
      <path d="M 80.574027 465.84 
L 80.574027 22.32 
" clip-path="url(#p6e4f50dbb9)" style="fill: none; stroke: #b0b0b0; stroke-width: 0.8; stroke-linecap: square"/>
     </g>
     <g id="line2d_2">
      <defs>
       <path id="mdc84ec3645" d="M 0 0 
L 0 3.5 
" style="stroke: #000000; stroke-width: 0.8"/>
      </defs>
      <g>
       <use xlink:href="#mdc84ec3645" x="80.574027" y="465.84" style="stroke: #000000; stroke-width: 0.8"/>
      </g>
     </g>
     <g id="text_1">
      <!-- 0.00 -->
      <g transform="translate(69.441214 480.438437) scale(0.1 -0.1)">
       <defs>
        <path id="DejaVuSans-30" d="M 2034 4250 
Q 1547 4250 1301 3770 
Q 1056 3291 1056 2328 
Q 1056 1369 1301 889 
Q 1547 409 2034 409 
Q 2525 409 2770 889 
Q 3016 1369 3016 2328 
Q 3016 3291 2770 3770 
Q 2525 4250 2034 4250 
z
M 2034 4750 
Q 2819 4750 3233 4129 
Q 3647 3509 3647 2328 
Q 3647 1150 3233 529 
Q 2819 -91 2034 -91 
Q 1250 -91 836 529 
Q 422 1150 422 2328 
Q 422 3509 836 4129 
Q 1250 4750 2034 4750 
z
" transform="scale(0.015625)"/>
        <path id="DejaVuSans-2e" d="M 684 794 
L 1344 794 
L 1344 0 
L 684 0 
L 684 794 
z
" transform="scale(0.015625)"/>
       </defs>
       <use xlink:href="#DejaVuSans-30"/>
       <use xlink:href="#DejaVuSans-2e" x="63.623047"/>
       <use xlink:href="#DejaVuSans-30" x="95.410156"/>
       <use xlink:href="#DejaVuSans-30" x="159.033203"/>
      </g>
     </g>
    </g>
    <g id="xtick_2">
     <g id="line2d_3">
      <path d="M 156.661892 465.84 
L 156.661892 22.32 
" clip-path="url(#p6e4f50dbb9)" style="fill: none; stroke: #b0b0b0; stroke-width: 0.8; stroke-linecap: square"/>
     </g>
     <g id="line2d_4">
      <g>
       <use xlink:href="#mdc84ec3645" x="156.661892" y="465.84" style="stroke: #000000; stroke-width: 0.8"/>
      </g>
     </g>
     <g id="text_2">
      <!-- 0.25 -->
      <g transform="translate(145.52908 480.438437) scale(0.1 -0.1)">
       <defs>
        <path id="DejaVuSans-32" d="M 1228 531 
L 3431 531 
L 3431 0 
L 469 0 
L 469 531 
Q 828 903 1448 1529 
Q 2069 2156 2228 2338 
Q 2531 2678 2651 2914 
Q 2772 3150 2772 3378 
Q 2772 3750 2511 3984 
Q 2250 4219 1831 4219 
Q 1534 4219 1204 4116 
Q 875 4013 500 3803 
L 500 4441 
Q 881 4594 1212 4672 
Q 1544 4750 1819 4750 
Q 2544 4750 2975 4387 
Q 3406 4025 3406 3419 
Q 3406 3131 3298 2873 
Q 3191 2616 2906 2266 
Q 2828 2175 2409 1742 
Q 1991 1309 1228 531 
z
" transform="scale(0.015625)"/>
        <path id="DejaVuSans-35" d="M 691 4666 
L 3169 4666 
L 3169 4134 
L 1269 4134 
L 1269 2991 
Q 1406 3038 1543 3061 
Q 1681 3084 1819 3084 
Q 2600 3084 3056 2656 
Q 3513 2228 3513 1497 
Q 3513 744 3044 326 
Q 2575 -91 1722 -91 
Q 1428 -91 1123 -41 
Q 819 9 494 109 
L 494 744 
Q 775 591 1075 516 
Q 1375 441 1709 441 
Q 2250 441 2565 725 
Q 2881 1009 2881 1497 
Q 2881 1984 2565 2268 
Q 2250 2553 1709 2553 
Q 1456 2553 1204 2497 
Q 953 2441 691 2322 
L 691 4666 
z
" transform="scale(0.015625)"/>
       </defs>
       <use xlink:href="#DejaVuSans-30"/>
       <use xlink:href="#DejaVuSans-2e" x="63.623047"/>
       <use xlink:href="#DejaVuSans-32" x="95.410156"/>
       <use xlink:href="#DejaVuSans-35" x="159.033203"/>
      </g>
     </g>
    </g>
    <g id="xtick_3">
     <g id="line2d_5">
      <path d="M 232.749758 465.84 
L 232.749758 22.32 
" clip-path="url(#p6e4f50dbb9)" style="fill: none; stroke: #b0b0b0; stroke-width: 0.8; stroke-linecap: square"/>
     </g>
     <g id="line2d_6">
      <g>
       <use xlink:href="#mdc84ec3645" x="232.749758" y="465.84" style="stroke: #000000; stroke-width: 0.8"/>
      </g>
     </g>
     <g id="text_3">
      <!-- 0.50 -->
      <g transform="translate(221.616945 480.438437) scale(0.1 -0.1)">
       <use xlink:href="#DejaVuSans-30"/>
       <use xlink:href="#DejaVuSans-2e" x="63.623047"/>
       <use xlink:href="#DejaVuSans-35" x="95.410156"/>
       <use xlink:href="#DejaVuSans-30" x="159.033203"/>
      </g>
     </g>
    </g>
    <g id="xtick_4">
     <g id="line2d_7">
      <path d="M 308.837623 465.84 
L 308.837623 22.32 
" clip-path="url(#p6e4f50dbb9)" style="fill: none; stroke: #b0b0b0; stroke-width: 0.8; stroke-linecap: square"/>
     </g>
     <g id="line2d_8">
      <g>
       <use xlink:href="#mdc84ec3645" x="308.837623" y="465.84" style="stroke: #000000; stroke-width: 0.8"/>
      </g>
     </g>
     <g id="text_4">
      <!-- 0.75 -->
      <g transform="translate(297.704811 480.438437) scale(0.1 -0.1)">
       <defs>
        <path id="DejaVuSans-37" d="M 525 4666 
L 3525 4666 
L 3525 4397 
L 1831 0 
L 1172 0 
L 2766 4134 
L 525 4134 
L 525 4666 
z
" transform="scale(0.015625)"/>
       </defs>
       <use xlink:href="#DejaVuSans-30"/>
       <use xlink:href="#DejaVuSans-2e" x="63.623047"/>
       <use xlink:href="#DejaVuSans-37" x="95.410156"/>
       <use xlink:href="#DejaVuSans-35" x="159.033203"/>
      </g>
     </g>
    </g>
    <g id="xtick_5">
     <g id="line2d_9">
      <path d="M 384.925489 465.84 
L 384.925489 22.32 
" clip-path="url(#p6e4f50dbb9)" style="fill: none; stroke: #b0b0b0; stroke-width: 0.8; stroke-linecap: square"/>
     </g>
     <g id="line2d_10">
      <g>
       <use xlink:href="#mdc84ec3645" x="384.925489" y="465.84" style="stroke: #000000; stroke-width: 0.8"/>
      </g>
     </g>
     <g id="text_5">
      <!-- 1.00 -->
      <g transform="translate(373.792676 480.438437) scale(0.1 -0.1)">
       <defs>
        <path id="DejaVuSans-31" d="M 794 531 
L 1825 531 
L 1825 4091 
L 703 3866 
L 703 4441 
L 1819 4666 
L 2450 4666 
L 2450 531 
L 3481 531 
L 3481 0 
L 794 0 
L 794 531 
z
" transform="scale(0.015625)"/>
       </defs>
       <use xlink:href="#DejaVuSans-31"/>
       <use xlink:href="#DejaVuSans-2e" x="63.623047"/>
       <use xlink:href="#DejaVuSans-30" x="95.410156"/>
       <use xlink:href="#DejaVuSans-30" x="159.033203"/>
      </g>
     </g>
    </g>
    <g id="xtick_6">
     <g id="line2d_11">
      <path d="M 461.013354 465.84 
L 461.013354 22.32 
" clip-path="url(#p6e4f50dbb9)" style="fill: none; stroke: #b0b0b0; stroke-width: 0.8; stroke-linecap: square"/>
     </g>
     <g id="line2d_12">
      <g>
       <use xlink:href="#mdc84ec3645" x="461.013354" y="465.84" style="stroke: #000000; stroke-width: 0.8"/>
      </g>
     </g>
     <g id="text_6">
      <!-- 1.25 -->
      <g transform="translate(449.880542 480.438437) scale(0.1 -0.1)">
       <use xlink:href="#DejaVuSans-31"/>
       <use xlink:href="#DejaVuSans-2e" x="63.623047"/>
       <use xlink:href="#DejaVuSans-32" x="95.410156"/>
       <use xlink:href="#DejaVuSans-35" x="159.033203"/>
      </g>
     </g>
    </g>
    <g id="xtick_7">
     <g id="line2d_13">
      <path d="M 537.10122 465.84 
L 537.10122 22.32 
" clip-path="url(#p6e4f50dbb9)" style="fill: none; stroke: #b0b0b0; stroke-width: 0.8; stroke-linecap: square"/>
     </g>
     <g id="line2d_14">
      <g>
       <use xlink:href="#mdc84ec3645" x="537.10122" y="465.84" style="stroke: #000000; stroke-width: 0.8"/>
      </g>
     </g>
     <g id="text_7">
      <!-- 1.50 -->
      <g transform="translate(525.968408 480.438437) scale(0.1 -0.1)">
       <use xlink:href="#DejaVuSans-31"/>
       <use xlink:href="#DejaVuSans-2e" x="63.623047"/>
       <use xlink:href="#DejaVuSans-35" x="95.410156"/>
       <use xlink:href="#DejaVuSans-30" x="159.033203"/>
      </g>
     </g>
    </g>
    <g id="xtick_8">
     <g id="line2d_15">
      <path d="M 613.189086 465.84 
L 613.189086 22.32 
" clip-path="url(#p6e4f50dbb9)" style="fill: none; stroke: #b0b0b0; stroke-width: 0.8; stroke-linecap: square"/>
     </g>
     <g id="line2d_16">
      <g>
       <use xlink:href="#mdc84ec3645" x="613.189086" y="465.84" style="stroke: #000000; stroke-width: 0.8"/>
      </g>
     </g>
     <g id="text_8">
      <!-- 1.75 -->
      <g transform="translate(602.056273 480.438437) scale(0.1 -0.1)">
       <use xlink:href="#DejaVuSans-31"/>
       <use xlink:href="#DejaVuSans-2e" x="63.623047"/>
       <use xlink:href="#DejaVuSans-37" x="95.410156"/>
       <use xlink:href="#DejaVuSans-35" x="159.033203"/>
      </g>
     </g>
    </g>
    <g id="xtick_9">
     <g id="line2d_17">
      <path d="M 689.276951 465.84 
L 689.276951 22.32 
" clip-path="url(#p6e4f50dbb9)" style="fill: none; stroke: #b0b0b0; stroke-width: 0.8; stroke-linecap: square"/>
     </g>
     <g id="line2d_18">
      <g>
       <use xlink:href="#mdc84ec3645" x="689.276951" y="465.84" style="stroke: #000000; stroke-width: 0.8"/>
      </g>
     </g>
     <g id="text_9">
      <!-- 2.00 -->
      <g transform="translate(678.144139 480.438437) scale(0.1 -0.1)">
       <use xlink:href="#DejaVuSans-32"/>
       <use xlink:href="#DejaVuSans-2e" x="63.623047"/>
       <use xlink:href="#DejaVuSans-30" x="95.410156"/>
       <use xlink:href="#DejaVuSans-30" x="159.033203"/>
      </g>
     </g>
    </g>
    <g id="text_10">
     <!-- $x$ -->
     <g transform="translate(381.94375 494.116562) scale(0.1 -0.1)">
      <defs>
       <path id="DejaVuSans-Oblique-78" d="M 3841 3500 
L 2234 1784 
L 3219 0 
L 2559 0 
L 1819 1388 
L 531 0 
L -166 0 
L 1556 1844 
L 641 3500 
L 1300 3500 
L 1972 2234 
L 3144 3500 
L 3841 3500 
z
" transform="scale(0.015625)"/>
      </defs>
      <use xlink:href="#DejaVuSans-Oblique-78" transform="translate(0 0.3125)"/>
     </g>
    </g>
   </g>
   <g id="matplotlib.axis_2">
    <g id="ytick_1">
     <g id="line2d_19">
      <path d="M 50.14375 447.225005 
L 719.74375 447.225005 
" clip-path="url(#p6e4f50dbb9)" style="fill: none; stroke: #b0b0b0; stroke-width: 0.8; stroke-linecap: square"/>
     </g>
     <g id="line2d_20">
      <defs>
       <path id="m021f5b52f0" d="M 0 0 
L -3.5 0 
" style="stroke: #000000; stroke-width: 0.8"/>
      </defs>
      <g>
       <use xlink:href="#m021f5b52f0" x="50.14375" y="447.225005" style="stroke: #000000; stroke-width: 0.8"/>
      </g>
     </g>
     <g id="text_11">
      <!-- 0.00 -->
      <g transform="translate(20.878125 451.024224) scale(0.1 -0.1)">
       <use xlink:href="#DejaVuSans-30"/>
       <use xlink:href="#DejaVuSans-2e" x="63.623047"/>
       <use xlink:href="#DejaVuSans-30" x="95.410156"/>
       <use xlink:href="#DejaVuSans-30" x="159.033203"/>
      </g>
     </g>
    </g>
    <g id="ytick_2">
     <g id="line2d_21">
      <path d="M 50.14375 369.974747 
L 719.74375 369.974747 
" clip-path="url(#p6e4f50dbb9)" style="fill: none; stroke: #b0b0b0; stroke-width: 0.8; stroke-linecap: square"/>
     </g>
     <g id="line2d_22">
      <g>
       <use xlink:href="#m021f5b52f0" x="50.14375" y="369.974747" style="stroke: #000000; stroke-width: 0.8"/>
      </g>
     </g>
     <g id="text_12">
      <!-- 0.01 -->
      <g transform="translate(20.878125 373.773965) scale(0.1 -0.1)">
       <use xlink:href="#DejaVuSans-30"/>
       <use xlink:href="#DejaVuSans-2e" x="63.623047"/>
       <use xlink:href="#DejaVuSans-30" x="95.410156"/>
       <use xlink:href="#DejaVuSans-31" x="159.033203"/>
      </g>
     </g>
    </g>
    <g id="ytick_3">
     <g id="line2d_23">
      <path d="M 50.14375 292.724488 
L 719.74375 292.724488 
" clip-path="url(#p6e4f50dbb9)" style="fill: none; stroke: #b0b0b0; stroke-width: 0.8; stroke-linecap: square"/>
     </g>
     <g id="line2d_24">
      <g>
       <use xlink:href="#m021f5b52f0" x="50.14375" y="292.724488" style="stroke: #000000; stroke-width: 0.8"/>
      </g>
     </g>
     <g id="text_13">
      <!-- 0.02 -->
      <g transform="translate(20.878125 296.523707) scale(0.1 -0.1)">
       <use xlink:href="#DejaVuSans-30"/>
       <use xlink:href="#DejaVuSans-2e" x="63.623047"/>
       <use xlink:href="#DejaVuSans-30" x="95.410156"/>
       <use xlink:href="#DejaVuSans-32" x="159.033203"/>
      </g>
     </g>
    </g>
    <g id="ytick_4">
     <g id="line2d_25">
      <path d="M 50.14375 215.474229 
L 719.74375 215.474229 
" clip-path="url(#p6e4f50dbb9)" style="fill: none; stroke: #b0b0b0; stroke-width: 0.8; stroke-linecap: square"/>
     </g>
     <g id="line2d_26">
      <g>
       <use xlink:href="#m021f5b52f0" x="50.14375" y="215.474229" style="stroke: #000000; stroke-width: 0.8"/>
      </g>
     </g>
     <g id="text_14">
      <!-- 0.03 -->
      <g transform="translate(20.878125 219.273448) scale(0.1 -0.1)">
       <defs>
        <path id="DejaVuSans-33" d="M 2597 2516 
Q 3050 2419 3304 2112 
Q 3559 1806 3559 1356 
Q 3559 666 3084 287 
Q 2609 -91 1734 -91 
Q 1441 -91 1130 -33 
Q 819 25 488 141 
L 488 750 
Q 750 597 1062 519 
Q 1375 441 1716 441 
Q 2309 441 2620 675 
Q 2931 909 2931 1356 
Q 2931 1769 2642 2001 
Q 2353 2234 1838 2234 
L 1294 2234 
L 1294 2753 
L 1863 2753 
Q 2328 2753 2575 2939 
Q 2822 3125 2822 3475 
Q 2822 3834 2567 4026 
Q 2313 4219 1838 4219 
Q 1578 4219 1281 4162 
Q 984 4106 628 3988 
L 628 4550 
Q 988 4650 1302 4700 
Q 1616 4750 1894 4750 
Q 2613 4750 3031 4423 
Q 3450 4097 3450 3541 
Q 3450 3153 3228 2886 
Q 3006 2619 2597 2516 
z
" transform="scale(0.015625)"/>
       </defs>
       <use xlink:href="#DejaVuSans-30"/>
       <use xlink:href="#DejaVuSans-2e" x="63.623047"/>
       <use xlink:href="#DejaVuSans-30" x="95.410156"/>
       <use xlink:href="#DejaVuSans-33" x="159.033203"/>
      </g>
     </g>
    </g>
    <g id="ytick_5">
     <g id="line2d_27">
      <path d="M 50.14375 138.223971 
L 719.74375 138.223971 
" clip-path="url(#p6e4f50dbb9)" style="fill: none; stroke: #b0b0b0; stroke-width: 0.8; stroke-linecap: square"/>
     </g>
     <g id="line2d_28">
      <g>
       <use xlink:href="#m021f5b52f0" x="50.14375" y="138.223971" style="stroke: #000000; stroke-width: 0.8"/>
      </g>
     </g>
     <g id="text_15">
      <!-- 0.04 -->
      <g transform="translate(20.878125 142.023189) scale(0.1 -0.1)">
       <defs>
        <path id="DejaVuSans-34" d="M 2419 4116 
L 825 1625 
L 2419 1625 
L 2419 4116 
z
M 2253 4666 
L 3047 4666 
L 3047 1625 
L 3713 1625 
L 3713 1100 
L 3047 1100 
L 3047 0 
L 2419 0 
L 2419 1100 
L 313 1100 
L 313 1709 
L 2253 4666 
z
" transform="scale(0.015625)"/>
       </defs>
       <use xlink:href="#DejaVuSans-30"/>
       <use xlink:href="#DejaVuSans-2e" x="63.623047"/>
       <use xlink:href="#DejaVuSans-30" x="95.410156"/>
       <use xlink:href="#DejaVuSans-34" x="159.033203"/>
      </g>
     </g>
    </g>
    <g id="ytick_6">
     <g id="line2d_29">
      <path d="M 50.14375 60.973712 
L 719.74375 60.973712 
" clip-path="url(#p6e4f50dbb9)" style="fill: none; stroke: #b0b0b0; stroke-width: 0.8; stroke-linecap: square"/>
     </g>
     <g id="line2d_30">
      <g>
       <use xlink:href="#m021f5b52f0" x="50.14375" y="60.973712" style="stroke: #000000; stroke-width: 0.8"/>
      </g>
     </g>
     <g id="text_16">
      <!-- 0.05 -->
      <g transform="translate(20.878125 64.772931) scale(0.1 -0.1)">
       <use xlink:href="#DejaVuSans-30"/>
       <use xlink:href="#DejaVuSans-2e" x="63.623047"/>
       <use xlink:href="#DejaVuSans-30" x="95.410156"/>
       <use xlink:href="#DejaVuSans-35" x="159.033203"/>
      </g>
     </g>
    </g>
    <g id="text_17">
     <!-- $\delta^*$ -->
     <g transform="translate(14.798437 250.78) rotate(-90) scale(0.1 -0.1)">
      <defs>
       <path id="DejaVuSans-Oblique-3b4" d="M 3472 4053 
Q 3197 4272 2450 4272 
Q 1659 4272 1588 3906 
Q 1531 3619 2328 3469 
Q 2953 3353 3253 3003 
Q 3616 2581 3447 1716 
Q 3284 888 2763 400 
Q 2238 -91 1488 -91 
Q 741 -91 406 400 
Q 72 888 241 1747 
Q 363 2384 891 2900 
Q 1097 3100 1353 3213 
Q 913 3459 1000 3900 
Q 1166 4750 2544 4750 
Q 3234 4750 3566 4531 
L 3472 4053 
z
M 1753 3056 
Q 1525 2966 1306 2738 
Q 969 2384 847 1747 
Q 722 1113 919 756 
Q 1119 397 1584 397 
Q 2044 397 2381 759 
Q 2722 1122 2838 1716 
Q 2956 2338 2731 2638 
Q 2491 2959 2103 2994 
Q 1906 3013 1753 3056 
z
" transform="scale(0.015625)"/>
       <path id="DejaVuSans-2a" d="M 3009 3897 
L 1888 3291 
L 3009 2681 
L 2828 2375 
L 1778 3009 
L 1778 1831 
L 1422 1831 
L 1422 3009 
L 372 2375 
L 191 2681 
L 1313 3291 
L 191 3897 
L 372 4206 
L 1422 3572 
L 1422 4750 
L 1778 4750 
L 1778 3572 
L 2828 4206 
L 3009 3897 
z
" transform="scale(0.015625)"/>
      </defs>
      <use xlink:href="#DejaVuSans-Oblique-3b4" transform="translate(0 0.765625)"/>
      <use xlink:href="#DejaVuSans-2a" transform="translate(82.019857 39.046875) scale(0.7)"/>
     </g>
    </g>
   </g>
   <g id="line2d_31">
    <path d="M 384.925489 212.137018 
L 383.242425 227.865171 
L 380.351086 237.498278 
L 377.012351 246.907359 
L 373.274915 256.455491 
L 369.239215 266.173574 
L 364.999599 275.907107 
L 360.644329 285.524764 
L 356.219059 294.902945 
L 351.757267 303.972126 
L 347.27417 312.72458 
L 342.781942 321.121683 
L 338.280584 329.14026 
L 333.776182 336.76486 
L 329.265693 343.964584 
L 324.755205 350.808957 
L 320.244716 357.220729 
L 315.731184 363.192174 
L 311.214608 368.769642 
L 306.698033 373.922235 
L 302.181457 378.680851 
L 297.667925 383.04549 
L 293.148305 387.016154 
L 288.634773 390.623741 
L 284.118198 393.868252 
L 279.604665 396.803761 
L 275.091133 399.391645 
L 270.577601 401.786403 
L 266.070156 403.87216 
L 261.559667 405.818867 
L 257.055266 407.533822 
L 252.553907 409.109728 
L 243.557278 411.906187 
L 234.575867 414.331845 
L 221.138749 417.475931 
L 212.209078 419.353112 
L 185.614847 424.397554 
L 172.46382 426.707336 
L 168.108551 427.387139 
L 159.449752 428.916694 
L 150.879214 430.399899 
L 125.983265 434.617763 
L 114.442257 436.82712 
L 110.860041 437.398772 
L 92.525909 441.508486 
L 90.921976 442.103313 
L 88.264988 442.69814 
L 87.163236 443.192542 
L 86.183224 443.377942 
L 85.312779 443.779644 
L 83.839718 444.17362 
L 83.224928 444.536696 
L 82.677095 444.590771 
L 81.429254 445.231948 
L 80.908813 445.185598 
L 80.74142 445.68 
L 80.631853 445.401899 
L 80.631853 445.440524 
L 81.782302 444.668022 
L 82.199263 444.366746 
L 82.677095 444.17362 
L 83.224928 443.764194 
L 88.264988 441.22266 
L 90.921976 440.071631 
L 98.768157 437.190197 
L 104.301267 435.459791 
L 107.466522 434.470987 
L 134.097275 427.410314 
L 146.630468 424.127178 
L 172.46382 416.850203 
L 181.216968 414.107819 
L 194.444083 409.472804 
L 203.309841 406.073792 
L 212.209078 402.42758 
L 234.575867 392.045145 
L 266.070156 376.564194 
L 275.091133 372.524005 
L 279.604665 370.685449 
L 284.118198 369.001393 
L 288.634773 367.487288 
L 293.148305 366.189484 
L 297.664881 365.18523 
L 302.181457 364.466803 
L 306.698033 364.165527 
L 311.214608 364.327753 
L 315.731184 365.162055 
L 320.244716 366.877011 
L 324.755205 369.364469 
L 329.265693 372.632155 
L 338.280584 379.607854 
L 342.781942 382.767389 
L 347.27417 385.440248 
L 351.757267 387.587805 
L 356.219059 389.217786 
L 360.644329 390.353365 
L 364.999599 391.071792 
L 369.239215 391.349893 
L 373.274915 391.249468 
L 377.012351 390.693266 
L 380.351086 389.434087 
L 383.242425 387.047054 
L 384.925489 373.953135 
L 384.955924 138.865148 
L 386.657249 172.020959 
L 388.626403 189.155066 
L 390.909039 206.080598 
L 393.550809 223.964033 
L 396.612585 242.959871 
L 400.155236 262.820913 
L 404.260937 282.898255 
L 409.014907 302.249445 
L 414.523669 319.877954 
L 420.902875 335.02673 
L 428.289485 347.409946 
L 436.844805 357.182104 
L 446.751445 364.744904 
L 458.228539 370.561848 
L 471.519567 375.019188 
L 486.913664 378.425925 
L 504.742573 381.036984 
L 525.389776 383.022315 
L 549.305714 384.544145 
L 577.001697 385.710624 
L 609.080341 386.599002 
L 646.232524 387.286529 
L 689.25869 387.850456 
L 689.25869 387.850456 
" clip-path="url(#p6e4f50dbb9)" style="fill: none; stroke: #1f77b4; stroke-width: 1.5; stroke-linecap: square"/>
   </g>
   <g id="line2d_32">
    <path d="M 384.925489 244.945203 
L 383.242425 262.202911 
L 380.351086 269.464435 
L 377.012351 275.590381 
L 369.239215 284.42781 
L 360.644329 294.72527 
L 347.27417 311.318625 
L 333.776182 327.996956 
L 324.755205 338.727017 
L 315.731184 348.931776 
L 311.214608 353.813992 
L 306.698033 358.510808 
L 302.181457 363.045398 
L 297.667925 367.379138 
L 293.148305 371.488852 
L 288.634773 375.428615 
L 284.118198 379.136627 
L 279.604665 382.620614 
L 275.091133 385.90375 
L 270.577601 389.001485 
L 266.070156 391.85202 
L 261.559667 394.532604 
L 257.055266 396.989162 
L 252.553907 399.29122 
L 248.052549 401.438777 
L 243.557278 403.393208 
L 234.575867 406.938995 
L 225.612716 410.052181 
L 216.67087 412.77139 
L 203.309841 416.402152 
L 185.614847 420.573666 
L 168.108551 424.312578 
L 110.860041 435.961917 
L 92.525909 440.766884 
L 88.264988 442.072413 
L 86.183224 442.945341 
L 82.677095 444.359021 
L 81.782302 444.953848 
L 81.137077 445.054273 
L 80.908813 445.525499 
L 80.74142 445.309199 
L 80.580114 445.479149 
L 80.908813 445.262849 
L 81.137077 445.370999 
L 81.429254 444.884322 
L 81.782302 444.861147 
L 82.677095 444.443996 
L 83.224928 444.12727 
L 84.533639 443.609693 
L 85.312779 443.200267 
L 86.183224 443.053491 
L 87.163236 442.489564 
L 89.512829 441.732512 
L 90.921976 441.20721 
L 92.525909 440.836409 
L 94.352017 440.179782 
L 98.768157 438.943777 
L 107.466522 436.757595 
L 110.860041 436.116418 
L 114.442257 435.15079 
L 122.032783 433.64441 
L 125.983265 432.717407 
L 138.233411 430.384449 
L 146.630468 428.654043 
L 150.879214 427.74249 
L 155.152309 427.008612 
L 190.021856 419.623488 
L 212.209078 413.991944 
L 221.138749 411.43496 
L 230.092769 408.538076 
L 239.062007 405.231765 
L 248.052549 401.438777 
L 252.553907 399.283495 
L 257.055266 397.004612 
L 261.559667 394.501704 
L 266.070156 391.85202 
L 275.091133 385.880575 
L 279.604665 382.589714 
L 284.118198 379.098002 
L 288.634773 375.382265 
L 293.148305 371.450226 
L 297.664881 367.332788 
L 302.181457 362.983598 
L 306.698033 358.449008 
L 315.731184 348.862251 
L 320.244716 343.825534 
L 329.265693 333.304049 
L 338.280584 322.365412 
L 351.757267 305.594381 
L 360.644329 294.570769 
L 369.239215 284.25786 
L 377.012351 275.412705 
L 380.351086 269.286759 
L 383.242425 262.025235 
L 384.925489 244.759802 
L 384.955924 42.48 
L 386.657249 82.418384 
L 388.626403 102.673402 
L 390.909039 123.075195 
L 393.550809 144.450341 
L 400.155236 193.905957 
L 404.260937 222.071401 
L 409.017951 250.584472 
L 414.523669 277.436662 
L 420.902875 300.804865 
L 428.289485 319.715728 
L 436.844805 334.192427 
L 446.754488 344.930213 
L 458.231582 352.778839 
L 471.525654 358.495358 
L 486.919751 362.659147 
L 504.751703 365.710532 
L 525.40195 367.958515 
L 549.320931 369.62712 
L 577.023001 370.878575 
L 609.107733 371.828753 
L 646.269046 372.54718 
L 689.307386 373.142007 
L 689.307386 373.142007 
" clip-path="url(#p6e4f50dbb9)" style="fill: none; stroke: #ff7f0e; stroke-width: 1.5; stroke-linecap: square"/>
   </g>
   <g id="line2d_33">
    <path d="M 384.925489 351.859561 
L 383.242425 363.748376 
L 380.351086 368.854618 
L 377.012351 373.057032 
L 373.274915 376.680069 
L 369.239215 379.92458 
L 364.999599 382.821465 
L 360.644329 385.424798 
L 356.219059 387.765481 
L 351.757267 389.874413 
L 347.27417 391.80567 
L 342.781942 393.582426 
L 338.280584 395.204681 
L 333.776182 396.703336 
L 324.755205 399.376195 
L 315.731184 401.662803 
L 306.698033 403.617234 
L 297.667925 405.25494 
L 293.148305 405.911567 
L 288.634773 406.452319 
L 284.118198 406.86947 
L 279.604665 407.108946 
L 275.091133 407.178471 
L 270.577601 407.008521 
L 266.070156 406.537294 
L 261.559667 405.710716 
L 257.055266 404.412912 
L 252.553907 402.597531 
L 248.052549 400.133247 
L 243.557278 397.143662 
L 234.575867 390.34564 
L 230.092769 387.51828 
L 225.612716 385.764699 
L 221.138749 385.069447 
L 216.67087 385.154422 
L 212.209078 385.749249 
L 207.756416 386.792128 
L 203.309841 388.259883 
L 194.444083 391.736144 
L 181.216968 398.325591 
L 172.46382 402.929707 
L 159.449752 409.689104 
L 150.879214 413.968769 
L 142.4152 417.846732 
L 130.009835 423.061124 
L 118.17665 427.63434 
L 104.301267 433.003233 
L 98.768157 435.28984 
L 92.525909 438.171275 
L 84.533639 442.644065 
L 80.631853 445.60275 
L 80.908813 445.386449 
L 81.137077 445.525499 
L 81.429254 445.123798 
L 82.199263 445.123798 
L 82.677095 444.706647 
L 88.264988 443.038041 
L 89.512829 442.644065 
L 104.301267 439.314579 
L 122.032783 436.131868 
L 130.009835 434.826339 
L 221.138749 420.836317 
L 248.052549 416.185851 
L 257.055266 414.44772 
L 266.070156 412.539639 
L 275.091133 410.407532 
L 284.118198 407.950974 
L 288.634773 406.568194 
L 293.148305 405.023189 
L 297.664881 403.339133 
L 302.181457 401.438777 
L 306.698033 399.32212 
L 311.214608 396.927362 
L 315.731184 394.254503 
L 320.244716 391.234018 
L 324.755205 387.811831 
L 329.265693 383.980218 
L 333.776182 379.716004 
L 338.280584 374.965113 
L 342.781942 369.742996 
L 347.27417 363.995577 
L 351.757267 357.730581 
L 356.219059 350.940283 
L 360.644329 343.640133 
L 364.999599 335.891932 
L 369.239215 327.734305 
L 373.274915 319.329477 
L 377.012351 310.847399 
L 380.351086 302.357595 
L 383.242425 293.682391 
L 384.925489 281.191024 
L 384.955924 185.82558 
L 386.657249 210.522488 
L 388.626403 223.446456 
L 390.909039 236.045973 
L 393.550809 248.70729 
L 396.612585 261.700784 
L 400.155236 274.995554 
L 404.260937 288.375298 
L 409.014907 301.515567 
L 414.520625 314.045559 
L 420.899832 325.602198 
L 428.283398 335.915107 
L 436.838718 344.883863 
L 446.745358 352.516188 
L 458.219408 358.904784 
L 471.504349 364.211877 
L 486.892359 368.591967 
L 504.715181 372.176379 
L 525.353254 375.088714 
L 549.257017 377.429396 
L 576.937783 379.298853 
L 608.995122 380.782058 
L 646.119914 381.948537 
L 689.112601 382.929615 
L 689.112601 382.929615 
" clip-path="url(#p6e4f50dbb9)" style="fill: none; stroke: #2ca02c; stroke-width: 1.5; stroke-linecap: square"/>
   </g>
   <g id="line2d_34">
    <path d="M 384.925489 281.770401 
L 383.242425 293.713291 
L 380.351086 302.36532 
L 377.012351 310.445697 
L 373.274915 318.101198 
L 369.239215 325.246847 
L 364.999599 331.797669 
L 360.644329 337.745939 
L 356.219059 343.114832 
L 351.757267 347.950698 
L 347.27417 352.330787 
L 342.781942 356.324626 
L 338.280584 359.963113 
L 333.776182 363.300324 
L 329.265693 366.374884 
L 324.755205 369.271769 
L 320.244716 371.952353 
L 311.214608 376.834569 
L 302.181457 381.214659 
L 293.148305 385.216223 
L 284.118198 388.91651 
L 275.091133 392.338696 
L 266.070156 395.575482 
L 257.055266 398.634592 
L 248.052549 401.546927 
L 234.575867 405.664366 
L 216.67087 410.677908 
L 207.756416 413.003141 
L 198.872396 415.127523 
L 190.021856 416.973804 
L 185.614847 417.808107 
L 181.216968 418.480184 
L 176.834307 419.005486 
L 172.46382 419.283587 
L 168.108551 419.175436 
L 163.768499 418.526534 
L 159.449752 417.074229 
L 155.152309 414.33957 
L 150.879214 410.314832 
L 146.630468 405.39399 
L 142.4152 401.299726 
L 138.233411 399.584771 
L 134.097275 399.746996 
L 130.009835 401.075701 
L 125.983265 403.269608 
L 122.032783 406.120143 
L 118.17665 409.426454 
L 114.442257 412.987691 
L 110.860041 416.564378 
L 101.39471 426.591461 
L 96.424651 431.643628 
L 90.921976 436.78077 
L 80.580114 445.525499 
L 80.631853 445.533225 
L 81.429254 445.340099 
L 81.782302 445.162423 
L 82.199263 445.146973 
L 83.224928 444.567596 
L 83.839718 444.567596 
L 84.533639 444.405371 
L 85.312779 443.980494 
L 86.183224 443.864619 
L 87.163236 443.516993 
L 101.39471 440.295657 
L 110.860041 438.572976 
L 122.032783 436.711245 
L 150.879214 432.477931 
L 176.834307 428.916694 
L 239.062007 420.612291 
L 257.055266 418.063033 
L 270.577601 416.062251 
L 284.118198 413.899244 
L 293.148305 412.269263 
L 302.181457 410.469332 
L 311.214608 408.352675 
L 315.731184 407.163021 
L 320.244716 405.842042 
L 324.755205 404.351112 
L 329.265693 402.659331 
L 333.776182 400.774425 
L 338.280584 398.580517 
L 342.781942 396.077609 
L 347.27417 393.188449 
L 351.757267 389.843513 
L 356.219059 386.0119 
L 360.644329 381.639536 
L 364.999599 376.734144 
L 369.239215 371.272551 
L 373.274915 365.339731 
L 377.012351 359.06701 
L 380.351086 352.485288 
L 383.242425 345.50959 
L 384.925489 335.428431 
L 384.955924 169.973827 
L 386.657249 190.051169 
L 388.626403 200.294553 
L 390.909039 210.167136 
L 393.550809 220.008819 
L 396.609542 230.089978 
L 400.155236 240.487863 
L 404.260937 251.148399 
L 409.014907 261.97116 
L 414.517582 272.793921 
L 420.893745 283.415832 
L 428.277311 293.643766 
L 436.829587 303.284598 
L 446.733184 312.207003 
L 458.201147 320.326005 
L 471.480001 327.60298 
L 486.858881 334.037926 
L 504.669528 339.677195 
L 525.292383 344.574861 
L 549.174843 348.777276 
L 576.828216 352.361688 
L 608.852077 355.366723 
L 645.934259 357.854181 
L 688.872164 360.117614 
L 688.872164 360.117614 
" clip-path="url(#p6e4f50dbb9)" style="fill: none; stroke: #d62728; stroke-width: 1.5; stroke-linecap: square"/>
   </g>
   <g id="patch_3">
    <path d="M 50.14375 465.84 
L 50.14375 22.32 
" style="fill: none; stroke: #000000; stroke-width: 0.8; stroke-linejoin: miter; stroke-linecap: square"/>
   </g>
   <g id="patch_4">
    <path d="M 719.74375 465.84 
L 719.74375 22.32 
" style="fill: none; stroke: #000000; stroke-width: 0.8; stroke-linejoin: miter; stroke-linecap: square"/>
   </g>
   <g id="patch_5">
    <path d="M 50.14375 465.84 
L 719.74375 465.84 
" style="fill: none; stroke: #000000; stroke-width: 0.8; stroke-linejoin: miter; stroke-linecap: square"/>
   </g>
   <g id="patch_6">
    <path d="M 50.14375 22.32 
L 719.74375 22.32 
" style="fill: none; stroke: #000000; stroke-width: 0.8; stroke-linejoin: miter; stroke-linecap: square"/>
   </g>
   <g id="text_18">
    <!-- Result plot for $\alpha = -2$ and $Re = 100000$ and $M = 0.1$ -->
    <g transform="translate(227.68375 16.32) scale(0.12 -0.12)">
     <defs>
      <path id="DejaVuSans-52" d="M 2841 2188 
Q 3044 2119 3236 1894 
Q 3428 1669 3622 1275 
L 4263 0 
L 3584 0 
L 2988 1197 
Q 2756 1666 2539 1819 
Q 2322 1972 1947 1972 
L 1259 1972 
L 1259 0 
L 628 0 
L 628 4666 
L 2053 4666 
Q 2853 4666 3247 4331 
Q 3641 3997 3641 3322 
Q 3641 2881 3436 2590 
Q 3231 2300 2841 2188 
z
M 1259 4147 
L 1259 2491 
L 2053 2491 
Q 2509 2491 2742 2702 
Q 2975 2913 2975 3322 
Q 2975 3731 2742 3939 
Q 2509 4147 2053 4147 
L 1259 4147 
z
" transform="scale(0.015625)"/>
      <path id="DejaVuSans-65" d="M 3597 1894 
L 3597 1613 
L 953 1613 
Q 991 1019 1311 708 
Q 1631 397 2203 397 
Q 2534 397 2845 478 
Q 3156 559 3463 722 
L 3463 178 
Q 3153 47 2828 -22 
Q 2503 -91 2169 -91 
Q 1331 -91 842 396 
Q 353 884 353 1716 
Q 353 2575 817 3079 
Q 1281 3584 2069 3584 
Q 2775 3584 3186 3129 
Q 3597 2675 3597 1894 
z
M 3022 2063 
Q 3016 2534 2758 2815 
Q 2500 3097 2075 3097 
Q 1594 3097 1305 2825 
Q 1016 2553 972 2059 
L 3022 2063 
z
" transform="scale(0.015625)"/>
      <path id="DejaVuSans-73" d="M 2834 3397 
L 2834 2853 
Q 2591 2978 2328 3040 
Q 2066 3103 1784 3103 
Q 1356 3103 1142 2972 
Q 928 2841 928 2578 
Q 928 2378 1081 2264 
Q 1234 2150 1697 2047 
L 1894 2003 
Q 2506 1872 2764 1633 
Q 3022 1394 3022 966 
Q 3022 478 2636 193 
Q 2250 -91 1575 -91 
Q 1294 -91 989 -36 
Q 684 19 347 128 
L 347 722 
Q 666 556 975 473 
Q 1284 391 1588 391 
Q 1994 391 2212 530 
Q 2431 669 2431 922 
Q 2431 1156 2273 1281 
Q 2116 1406 1581 1522 
L 1381 1569 
Q 847 1681 609 1914 
Q 372 2147 372 2553 
Q 372 3047 722 3315 
Q 1072 3584 1716 3584 
Q 2034 3584 2315 3537 
Q 2597 3491 2834 3397 
z
" transform="scale(0.015625)"/>
      <path id="DejaVuSans-75" d="M 544 1381 
L 544 3500 
L 1119 3500 
L 1119 1403 
Q 1119 906 1312 657 
Q 1506 409 1894 409 
Q 2359 409 2629 706 
Q 2900 1003 2900 1516 
L 2900 3500 
L 3475 3500 
L 3475 0 
L 2900 0 
L 2900 538 
Q 2691 219 2414 64 
Q 2138 -91 1772 -91 
Q 1169 -91 856 284 
Q 544 659 544 1381 
z
M 1991 3584 
L 1991 3584 
z
" transform="scale(0.015625)"/>
      <path id="DejaVuSans-6c" d="M 603 4863 
L 1178 4863 
L 1178 0 
L 603 0 
L 603 4863 
z
" transform="scale(0.015625)"/>
      <path id="DejaVuSans-74" d="M 1172 4494 
L 1172 3500 
L 2356 3500 
L 2356 3053 
L 1172 3053 
L 1172 1153 
Q 1172 725 1289 603 
Q 1406 481 1766 481 
L 2356 481 
L 2356 0 
L 1766 0 
Q 1100 0 847 248 
Q 594 497 594 1153 
L 594 3053 
L 172 3053 
L 172 3500 
L 594 3500 
L 594 4494 
L 1172 4494 
z
" transform="scale(0.015625)"/>
      <path id="DejaVuSans-20" transform="scale(0.015625)"/>
      <path id="DejaVuSans-70" d="M 1159 525 
L 1159 -1331 
L 581 -1331 
L 581 3500 
L 1159 3500 
L 1159 2969 
Q 1341 3281 1617 3432 
Q 1894 3584 2278 3584 
Q 2916 3584 3314 3078 
Q 3713 2572 3713 1747 
Q 3713 922 3314 415 
Q 2916 -91 2278 -91 
Q 1894 -91 1617 61 
Q 1341 213 1159 525 
z
M 3116 1747 
Q 3116 2381 2855 2742 
Q 2594 3103 2138 3103 
Q 1681 3103 1420 2742 
Q 1159 2381 1159 1747 
Q 1159 1113 1420 752 
Q 1681 391 2138 391 
Q 2594 391 2855 752 
Q 3116 1113 3116 1747 
z
" transform="scale(0.015625)"/>
      <path id="DejaVuSans-6f" d="M 1959 3097 
Q 1497 3097 1228 2736 
Q 959 2375 959 1747 
Q 959 1119 1226 758 
Q 1494 397 1959 397 
Q 2419 397 2687 759 
Q 2956 1122 2956 1747 
Q 2956 2369 2687 2733 
Q 2419 3097 1959 3097 
z
M 1959 3584 
Q 2709 3584 3137 3096 
Q 3566 2609 3566 1747 
Q 3566 888 3137 398 
Q 2709 -91 1959 -91 
Q 1206 -91 779 398 
Q 353 888 353 1747 
Q 353 2609 779 3096 
Q 1206 3584 1959 3584 
z
" transform="scale(0.015625)"/>
      <path id="DejaVuSans-66" d="M 2375 4863 
L 2375 4384 
L 1825 4384 
Q 1516 4384 1395 4259 
Q 1275 4134 1275 3809 
L 1275 3500 
L 2222 3500 
L 2222 3053 
L 1275 3053 
L 1275 0 
L 697 0 
L 697 3053 
L 147 3053 
L 147 3500 
L 697 3500 
L 697 3744 
Q 697 4328 969 4595 
Q 1241 4863 1831 4863 
L 2375 4863 
z
" transform="scale(0.015625)"/>
      <path id="DejaVuSans-72" d="M 2631 2963 
Q 2534 3019 2420 3045 
Q 2306 3072 2169 3072 
Q 1681 3072 1420 2755 
Q 1159 2438 1159 1844 
L 1159 0 
L 581 0 
L 581 3500 
L 1159 3500 
L 1159 2956 
Q 1341 3275 1631 3429 
Q 1922 3584 2338 3584 
Q 2397 3584 2469 3576 
Q 2541 3569 2628 3553 
L 2631 2963 
z
" transform="scale(0.015625)"/>
      <path id="DejaVuSans-Oblique-3b1" d="M 2619 1628 
L 2622 2350 
Q 2625 3088 2069 3091 
Q 1653 3094 1394 2747 
Q 1069 2319 959 1747 
Q 825 1059 994 731 
Q 1169 397 1547 397 
Q 1966 397 2319 1063 
L 2619 1628 
z
M 2166 3578 
Q 3141 3594 3128 2584 
Q 3128 2584 3616 3500 
L 4128 3500 
L 3119 1603 
L 3109 919 
Q 3109 766 3194 638 
Q 3291 488 3391 488 
L 3669 488 
L 3575 0 
L 3228 0 
Q 2934 0 2722 263 
Q 2622 394 2619 669 
Q 2416 334 2066 50 
Q 1900 -81 1453 -78 
Q 722 -72 456 397 
Q 184 884 353 1747 
Q 534 2675 1009 3097 
Q 1544 3569 2166 3578 
z
" transform="scale(0.015625)"/>
      <path id="DejaVuSans-3d" d="M 678 2906 
L 4684 2906 
L 4684 2381 
L 678 2381 
L 678 2906 
z
M 678 1631 
L 4684 1631 
L 4684 1100 
L 678 1100 
L 678 1631 
z
" transform="scale(0.015625)"/>
      <path id="DejaVuSans-2212" d="M 678 2272 
L 4684 2272 
L 4684 1741 
L 678 1741 
L 678 2272 
z
" transform="scale(0.015625)"/>
      <path id="DejaVuSans-61" d="M 2194 1759 
Q 1497 1759 1228 1600 
Q 959 1441 959 1056 
Q 959 750 1161 570 
Q 1363 391 1709 391 
Q 2188 391 2477 730 
Q 2766 1069 2766 1631 
L 2766 1759 
L 2194 1759 
z
M 3341 1997 
L 3341 0 
L 2766 0 
L 2766 531 
Q 2569 213 2275 61 
Q 1981 -91 1556 -91 
Q 1019 -91 701 211 
Q 384 513 384 1019 
Q 384 1609 779 1909 
Q 1175 2209 1959 2209 
L 2766 2209 
L 2766 2266 
Q 2766 2663 2505 2880 
Q 2244 3097 1772 3097 
Q 1472 3097 1187 3025 
Q 903 2953 641 2809 
L 641 3341 
Q 956 3463 1253 3523 
Q 1550 3584 1831 3584 
Q 2591 3584 2966 3190 
Q 3341 2797 3341 1997 
z
" transform="scale(0.015625)"/>
      <path id="DejaVuSans-6e" d="M 3513 2113 
L 3513 0 
L 2938 0 
L 2938 2094 
Q 2938 2591 2744 2837 
Q 2550 3084 2163 3084 
Q 1697 3084 1428 2787 
Q 1159 2491 1159 1978 
L 1159 0 
L 581 0 
L 581 3500 
L 1159 3500 
L 1159 2956 
Q 1366 3272 1645 3428 
Q 1925 3584 2291 3584 
Q 2894 3584 3203 3211 
Q 3513 2838 3513 2113 
z
" transform="scale(0.015625)"/>
      <path id="DejaVuSans-64" d="M 2906 2969 
L 2906 4863 
L 3481 4863 
L 3481 0 
L 2906 0 
L 2906 525 
Q 2725 213 2448 61 
Q 2172 -91 1784 -91 
Q 1150 -91 751 415 
Q 353 922 353 1747 
Q 353 2572 751 3078 
Q 1150 3584 1784 3584 
Q 2172 3584 2448 3432 
Q 2725 3281 2906 2969 
z
M 947 1747 
Q 947 1113 1208 752 
Q 1469 391 1925 391 
Q 2381 391 2643 752 
Q 2906 1113 2906 1747 
Q 2906 2381 2643 2742 
Q 2381 3103 1925 3103 
Q 1469 3103 1208 2742 
Q 947 2381 947 1747 
z
" transform="scale(0.015625)"/>
      <path id="DejaVuSans-Oblique-52" d="M 1613 4147 
L 1294 2491 
L 2106 2491 
Q 2584 2491 2879 2755 
Q 3175 3019 3175 3444 
Q 3175 3784 2976 3965 
Q 2778 4147 2406 4147 
L 1613 4147 
z
M 2772 2241 
Q 2972 2194 3105 2009 
Q 3238 1825 3413 1275 
L 3809 0 
L 3144 0 
L 2778 1197 
Q 2638 1659 2453 1815 
Q 2269 1972 1888 1972 
L 1191 1972 
L 806 0 
L 172 0 
L 1081 4666 
L 2503 4666 
Q 3150 4666 3495 4373 
Q 3841 4081 3841 3531 
Q 3841 3044 3547 2687 
Q 3253 2331 2772 2241 
z
" transform="scale(0.015625)"/>
      <path id="DejaVuSans-Oblique-65" d="M 3078 2063 
Q 3088 2113 3092 2166 
Q 3097 2219 3097 2272 
Q 3097 2653 2873 2875 
Q 2650 3097 2266 3097 
Q 1838 3097 1509 2826 
Q 1181 2556 1013 2059 
L 3078 2063 
z
M 3578 1613 
L 903 1613 
Q 884 1494 878 1425 
Q 872 1356 872 1306 
Q 872 872 1139 634 
Q 1406 397 1894 397 
Q 2269 397 2603 481 
Q 2938 566 3225 728 
L 3116 159 
Q 2806 34 2476 -28 
Q 2147 -91 1806 -91 
Q 1078 -91 686 257 
Q 294 606 294 1247 
Q 294 1794 489 2264 
Q 684 2734 1063 3103 
Q 1306 3334 1642 3459 
Q 1978 3584 2356 3584 
Q 2950 3584 3301 3228 
Q 3653 2872 3653 2272 
Q 3653 2128 3634 1964 
Q 3616 1800 3578 1613 
z
" transform="scale(0.015625)"/>
      <path id="DejaVuSans-Oblique-4d" d="M 1081 4666 
L 2028 4666 
L 2572 1522 
L 4378 4666 
L 5350 4666 
L 4441 0 
L 3828 0 
L 4622 4091 
L 2791 897 
L 2175 897 
L 1581 4103 
L 788 0 
L 172 0 
L 1081 4666 
z
" transform="scale(0.015625)"/>
     </defs>
     <use xlink:href="#DejaVuSans-52" transform="translate(0 0.015625)"/>
     <use xlink:href="#DejaVuSans-65" transform="translate(69.482422 0.015625)"/>
     <use xlink:href="#DejaVuSans-73" transform="translate(131.005859 0.015625)"/>
     <use xlink:href="#DejaVuSans-75" transform="translate(183.105469 0.015625)"/>
     <use xlink:href="#DejaVuSans-6c" transform="translate(246.484375 0.015625)"/>
     <use xlink:href="#DejaVuSans-74" transform="translate(274.267578 0.015625)"/>
     <use xlink:href="#DejaVuSans-20" transform="translate(313.476562 0.015625)"/>
     <use xlink:href="#DejaVuSans-70" transform="translate(345.263672 0.015625)"/>
     <use xlink:href="#DejaVuSans-6c" transform="translate(408.740234 0.015625)"/>
     <use xlink:href="#DejaVuSans-6f" transform="translate(436.523438 0.015625)"/>
     <use xlink:href="#DejaVuSans-74" transform="translate(497.705078 0.015625)"/>
     <use xlink:href="#DejaVuSans-20" transform="translate(536.914062 0.015625)"/>
     <use xlink:href="#DejaVuSans-66" transform="translate(568.701172 0.015625)"/>
     <use xlink:href="#DejaVuSans-6f" transform="translate(603.90625 0.015625)"/>
     <use xlink:href="#DejaVuSans-72" transform="translate(665.087891 0.015625)"/>
     <use xlink:href="#DejaVuSans-20" transform="translate(706.201172 0.015625)"/>
     <use xlink:href="#DejaVuSans-Oblique-3b1" transform="translate(737.988281 0.015625)"/>
     <use xlink:href="#DejaVuSans-3d" transform="translate(823.388672 0.015625)"/>
     <use xlink:href="#DejaVuSans-2212" transform="translate(946.142578 0.015625)"/>
     <use xlink:href="#DejaVuSans-32" transform="translate(1049.414062 0.015625)"/>
     <use xlink:href="#DejaVuSans-20" transform="translate(1113.037109 0.015625)"/>
     <use xlink:href="#DejaVuSans-61" transform="translate(1144.824219 0.015625)"/>
     <use xlink:href="#DejaVuSans-6e" transform="translate(1206.103516 0.015625)"/>
     <use xlink:href="#DejaVuSans-64" transform="translate(1269.482422 0.015625)"/>
     <use xlink:href="#DejaVuSans-20" transform="translate(1332.958984 0.015625)"/>
     <use xlink:href="#DejaVuSans-Oblique-52" transform="translate(1364.746094 0.015625)"/>
     <use xlink:href="#DejaVuSans-Oblique-65" transform="translate(1434.228516 0.015625)"/>
     <use xlink:href="#DejaVuSans-3d" transform="translate(1515.234375 0.015625)"/>
     <use xlink:href="#DejaVuSans-31" transform="translate(1618.505859 0.015625)"/>
     <use xlink:href="#DejaVuSans-30" transform="translate(1682.128906 0.015625)"/>
     <use xlink:href="#DejaVuSans-30" transform="translate(1745.751953 0.015625)"/>
     <use xlink:href="#DejaVuSans-30" transform="translate(1809.375 0.015625)"/>
     <use xlink:href="#DejaVuSans-30" transform="translate(1872.998047 0.015625)"/>
     <use xlink:href="#DejaVuSans-30" transform="translate(1936.621094 0.015625)"/>
     <use xlink:href="#DejaVuSans-20" transform="translate(2000.244141 0.015625)"/>
     <use xlink:href="#DejaVuSans-61" transform="translate(2032.03125 0.015625)"/>
     <use xlink:href="#DejaVuSans-6e" transform="translate(2093.310547 0.015625)"/>
     <use xlink:href="#DejaVuSans-64" transform="translate(2156.689453 0.015625)"/>
     <use xlink:href="#DejaVuSans-20" transform="translate(2220.166016 0.015625)"/>
     <use xlink:href="#DejaVuSans-Oblique-4d" transform="translate(2251.953125 0.015625)"/>
     <use xlink:href="#DejaVuSans-3d" transform="translate(2357.714844 0.015625)"/>
     <use xlink:href="#DejaVuSans-30" transform="translate(2460.986328 0.015625)"/>
     <use xlink:href="#DejaVuSans-2e" transform="translate(2524.609375 0.015625)"/>
     <use xlink:href="#DejaVuSans-31" transform="translate(2556.396484 0.015625)"/>
    </g>
   </g>
   <g id="legend_1">
    <g id="patch_7">
     <path d="M 529.74375 89.0325 
L 712.74375 89.0325 
Q 714.74375 89.0325 714.74375 87.0325 
L 714.74375 29.32 
Q 714.74375 27.32 712.74375 27.32 
L 529.74375 27.32 
Q 527.74375 27.32 527.74375 29.32 
L 527.74375 87.0325 
Q 527.74375 89.0325 529.74375 89.0325 
z
" style="fill: #ffffff; opacity: 0.8; stroke: #cccccc; stroke-linejoin: miter"/>
    </g>
    <g id="line2d_35">
     <path d="M 531.74375 35.418437 
L 541.74375 35.418437 
L 551.74375 35.418437 
" style="fill: none; stroke: #1f77b4; stroke-width: 1.5; stroke-linecap: square"/>
    </g>
    <g id="text_19">
     <!-- $\alpha = -2$; $Re = 100000$; $M = 0.1$ -->
     <g transform="translate(559.74375 38.918437) scale(0.1 -0.1)">
      <defs>
       <path id="DejaVuSans-3b" d="M 750 3309 
L 1409 3309 
L 1409 2516 
L 750 2516 
L 750 3309 
z
M 750 794 
L 1409 794 
L 1409 256 
L 897 -744 
L 494 -744 
L 750 256 
L 750 794 
z
" transform="scale(0.015625)"/>
      </defs>
      <use xlink:href="#DejaVuSans-Oblique-3b1" transform="translate(0 0.78125)"/>
      <use xlink:href="#DejaVuSans-3d" transform="translate(85.400391 0.78125)"/>
      <use xlink:href="#DejaVuSans-2212" transform="translate(208.154297 0.78125)"/>
      <use xlink:href="#DejaVuSans-32" transform="translate(311.425781 0.78125)"/>
      <use xlink:href="#DejaVuSans-3b" transform="translate(375.048828 0.78125)"/>
      <use xlink:href="#DejaVuSans-20" transform="translate(408.740234 0.78125)"/>
      <use xlink:href="#DejaVuSans-Oblique-52" transform="translate(440.527344 0.78125)"/>
      <use xlink:href="#DejaVuSans-Oblique-65" transform="translate(510.009766 0.78125)"/>
      <use xlink:href="#DejaVuSans-3d" transform="translate(591.015625 0.78125)"/>
      <use xlink:href="#DejaVuSans-31" transform="translate(694.287109 0.78125)"/>
      <use xlink:href="#DejaVuSans-30" transform="translate(757.910156 0.78125)"/>
      <use xlink:href="#DejaVuSans-30" transform="translate(821.533203 0.78125)"/>
      <use xlink:href="#DejaVuSans-30" transform="translate(885.15625 0.78125)"/>
      <use xlink:href="#DejaVuSans-30" transform="translate(948.779297 0.78125)"/>
      <use xlink:href="#DejaVuSans-30" transform="translate(1012.402344 0.78125)"/>
      <use xlink:href="#DejaVuSans-3b" transform="translate(1076.025391 0.78125)"/>
      <use xlink:href="#DejaVuSans-20" transform="translate(1109.716797 0.78125)"/>
      <use xlink:href="#DejaVuSans-Oblique-4d" transform="translate(1141.503906 0.78125)"/>
      <use xlink:href="#DejaVuSans-3d" transform="translate(1247.265625 0.78125)"/>
      <use xlink:href="#DejaVuSans-30" transform="translate(1350.537109 0.78125)"/>
      <use xlink:href="#DejaVuSans-2e" transform="translate(1414.160156 0.78125)"/>
      <use xlink:href="#DejaVuSans-31" transform="translate(1445.947266 0.78125)"/>
     </g>
    </g>
    <g id="line2d_36">
     <path d="M 531.74375 50.096563 
L 541.74375 50.096563 
L 551.74375 50.096563 
" style="fill: none; stroke: #ff7f0e; stroke-width: 1.5; stroke-linecap: square"/>
    </g>
    <g id="text_20">
     <!-- $\alpha = 0$; $Re = 100000$; $M = 0.1$ -->
     <g transform="translate(559.74375 53.596563) scale(0.1 -0.1)">
      <use xlink:href="#DejaVuSans-Oblique-3b1" transform="translate(0 0.78125)"/>
      <use xlink:href="#DejaVuSans-3d" transform="translate(85.400391 0.78125)"/>
      <use xlink:href="#DejaVuSans-30" transform="translate(188.671875 0.78125)"/>
      <use xlink:href="#DejaVuSans-3b" transform="translate(252.294922 0.78125)"/>
      <use xlink:href="#DejaVuSans-20" transform="translate(285.986328 0.78125)"/>
      <use xlink:href="#DejaVuSans-Oblique-52" transform="translate(317.773438 0.78125)"/>
      <use xlink:href="#DejaVuSans-Oblique-65" transform="translate(387.255859 0.78125)"/>
      <use xlink:href="#DejaVuSans-3d" transform="translate(468.261719 0.78125)"/>
      <use xlink:href="#DejaVuSans-31" transform="translate(571.533203 0.78125)"/>
      <use xlink:href="#DejaVuSans-30" transform="translate(635.15625 0.78125)"/>
      <use xlink:href="#DejaVuSans-30" transform="translate(698.779297 0.78125)"/>
      <use xlink:href="#DejaVuSans-30" transform="translate(762.402344 0.78125)"/>
      <use xlink:href="#DejaVuSans-30" transform="translate(826.025391 0.78125)"/>
      <use xlink:href="#DejaVuSans-30" transform="translate(889.648438 0.78125)"/>
      <use xlink:href="#DejaVuSans-3b" transform="translate(953.271484 0.78125)"/>
      <use xlink:href="#DejaVuSans-20" transform="translate(986.962891 0.78125)"/>
      <use xlink:href="#DejaVuSans-Oblique-4d" transform="translate(1018.75 0.78125)"/>
      <use xlink:href="#DejaVuSans-3d" transform="translate(1124.511719 0.78125)"/>
      <use xlink:href="#DejaVuSans-30" transform="translate(1227.783203 0.78125)"/>
      <use xlink:href="#DejaVuSans-2e" transform="translate(1291.40625 0.78125)"/>
      <use xlink:href="#DejaVuSans-31" transform="translate(1323.193359 0.78125)"/>
     </g>
    </g>
    <g id="line2d_37">
     <path d="M 531.74375 64.774687 
L 541.74375 64.774687 
L 551.74375 64.774687 
" style="fill: none; stroke: #2ca02c; stroke-width: 1.5; stroke-linecap: square"/>
    </g>
    <g id="text_21">
     <!-- $\alpha = 4$; $Re = 100000$; $M = 0.1$ -->
     <g transform="translate(559.74375 68.274687) scale(0.1 -0.1)">
      <use xlink:href="#DejaVuSans-Oblique-3b1" transform="translate(0 0.78125)"/>
      <use xlink:href="#DejaVuSans-3d" transform="translate(85.400391 0.78125)"/>
      <use xlink:href="#DejaVuSans-34" transform="translate(188.671875 0.78125)"/>
      <use xlink:href="#DejaVuSans-3b" transform="translate(252.294922 0.78125)"/>
      <use xlink:href="#DejaVuSans-20" transform="translate(285.986328 0.78125)"/>
      <use xlink:href="#DejaVuSans-Oblique-52" transform="translate(317.773438 0.78125)"/>
      <use xlink:href="#DejaVuSans-Oblique-65" transform="translate(387.255859 0.78125)"/>
      <use xlink:href="#DejaVuSans-3d" transform="translate(468.261719 0.78125)"/>
      <use xlink:href="#DejaVuSans-31" transform="translate(571.533203 0.78125)"/>
      <use xlink:href="#DejaVuSans-30" transform="translate(635.15625 0.78125)"/>
      <use xlink:href="#DejaVuSans-30" transform="translate(698.779297 0.78125)"/>
      <use xlink:href="#DejaVuSans-30" transform="translate(762.402344 0.78125)"/>
      <use xlink:href="#DejaVuSans-30" transform="translate(826.025391 0.78125)"/>
      <use xlink:href="#DejaVuSans-30" transform="translate(889.648438 0.78125)"/>
      <use xlink:href="#DejaVuSans-3b" transform="translate(953.271484 0.78125)"/>
      <use xlink:href="#DejaVuSans-20" transform="translate(986.962891 0.78125)"/>
      <use xlink:href="#DejaVuSans-Oblique-4d" transform="translate(1018.75 0.78125)"/>
      <use xlink:href="#DejaVuSans-3d" transform="translate(1124.511719 0.78125)"/>
      <use xlink:href="#DejaVuSans-30" transform="translate(1227.783203 0.78125)"/>
      <use xlink:href="#DejaVuSans-2e" transform="translate(1291.40625 0.78125)"/>
      <use xlink:href="#DejaVuSans-31" transform="translate(1323.193359 0.78125)"/>
     </g>
    </g>
    <g id="line2d_38">
     <path d="M 531.74375 79.452812 
L 541.74375 79.452812 
L 551.74375 79.452812 
" style="fill: none; stroke: #d62728; stroke-width: 1.5; stroke-linecap: square"/>
    </g>
    <g id="text_22">
     <!-- $\alpha = 6$; $Re = 100000$; $M = 0.1$ -->
     <g transform="translate(559.74375 82.952812) scale(0.1 -0.1)">
      <defs>
       <path id="DejaVuSans-36" d="M 2113 2584 
Q 1688 2584 1439 2293 
Q 1191 2003 1191 1497 
Q 1191 994 1439 701 
Q 1688 409 2113 409 
Q 2538 409 2786 701 
Q 3034 994 3034 1497 
Q 3034 2003 2786 2293 
Q 2538 2584 2113 2584 
z
M 3366 4563 
L 3366 3988 
Q 3128 4100 2886 4159 
Q 2644 4219 2406 4219 
Q 1781 4219 1451 3797 
Q 1122 3375 1075 2522 
Q 1259 2794 1537 2939 
Q 1816 3084 2150 3084 
Q 2853 3084 3261 2657 
Q 3669 2231 3669 1497 
Q 3669 778 3244 343 
Q 2819 -91 2113 -91 
Q 1303 -91 875 529 
Q 447 1150 447 2328 
Q 447 3434 972 4092 
Q 1497 4750 2381 4750 
Q 2619 4750 2861 4703 
Q 3103 4656 3366 4563 
z
" transform="scale(0.015625)"/>
      </defs>
      <use xlink:href="#DejaVuSans-Oblique-3b1" transform="translate(0 0.78125)"/>
      <use xlink:href="#DejaVuSans-3d" transform="translate(85.400391 0.78125)"/>
      <use xlink:href="#DejaVuSans-36" transform="translate(188.671875 0.78125)"/>
      <use xlink:href="#DejaVuSans-3b" transform="translate(252.294922 0.78125)"/>
      <use xlink:href="#DejaVuSans-20" transform="translate(285.986328 0.78125)"/>
      <use xlink:href="#DejaVuSans-Oblique-52" transform="translate(317.773438 0.78125)"/>
      <use xlink:href="#DejaVuSans-Oblique-65" transform="translate(387.255859 0.78125)"/>
      <use xlink:href="#DejaVuSans-3d" transform="translate(468.261719 0.78125)"/>
      <use xlink:href="#DejaVuSans-31" transform="translate(571.533203 0.78125)"/>
      <use xlink:href="#DejaVuSans-30" transform="translate(635.15625 0.78125)"/>
      <use xlink:href="#DejaVuSans-30" transform="translate(698.779297 0.78125)"/>
      <use xlink:href="#DejaVuSans-30" transform="translate(762.402344 0.78125)"/>
      <use xlink:href="#DejaVuSans-30" transform="translate(826.025391 0.78125)"/>
      <use xlink:href="#DejaVuSans-30" transform="translate(889.648438 0.78125)"/>
      <use xlink:href="#DejaVuSans-3b" transform="translate(953.271484 0.78125)"/>
      <use xlink:href="#DejaVuSans-20" transform="translate(986.962891 0.78125)"/>
      <use xlink:href="#DejaVuSans-Oblique-4d" transform="translate(1018.75 0.78125)"/>
      <use xlink:href="#DejaVuSans-3d" transform="translate(1124.511719 0.78125)"/>
      <use xlink:href="#DejaVuSans-30" transform="translate(1227.783203 0.78125)"/>
      <use xlink:href="#DejaVuSans-2e" transform="translate(1291.40625 0.78125)"/>
      <use xlink:href="#DejaVuSans-31" transform="translate(1323.193359 0.78125)"/>
     </g>
    </g>
   </g>
  </g>
 </g>
 <defs>
  <clipPath id="p6e4f50dbb9">
   <rect x="50.14375" y="22.32" width="669.6" height="443.52"/>
  </clipPath>
 </defs>
</svg>
