<?xml version="1.0" encoding="utf-8" standalone="no"?>
<!DOCTYPE svg PUBLIC "-//W3C//DTD SVG 1.1//EN"
  "http://www.w3.org/Graphics/SVG/1.1/DTD/svg11.dtd">
<svg xmlns:xlink="http://www.w3.org/1999/xlink" width="728.960937pt" height="503.39625pt" viewBox="0 0 728.960937 503.39625" xmlns="http://www.w3.org/2000/svg" version="1.1">
 <metadata>
  <rdf:RDF xmlns:dc="http://purl.org/dc/elements/1.1/" xmlns:cc="http://creativecommons.org/ns#" xmlns:rdf="http://www.w3.org/1999/02/22-rdf-syntax-ns#">
   <cc:Work>
    <dc:type rdf:resource="http://purl.org/dc/dcmitype/StillImage"/>
    <dc:date>2023-02-24T16:24:43.291276</dc:date>
    <dc:format>image/svg+xml</dc:format>
    <dc:creator>
     <cc:Agent>
      <dc:title>Matplotlib v3.6.2, https://matplotlib.org/</dc:title>
     </cc:Agent>
    </dc:creator>
   </cc:Work>
  </rdf:RDF>
 </metadata>
 <defs>
  <style type="text/css">*{stroke-linejoin: round; stroke-linecap: butt}</style>
 </defs>
 <g id="figure_1">
  <g id="patch_1">
   <path d="M 0 503.39625 
L 728.960937 503.39625 
L 728.960937 0 
L 0 0 
z
" style="fill: #ffffff"/>
  </g>
  <g id="axes_1">
   <g id="patch_2">
    <path d="M 52.160938 465.84 
L 721.760938 465.84 
L 721.760938 22.32 
L 52.160938 22.32 
z
" style="fill: #ffffff"/>
   </g>
   <g id="matplotlib.axis_1">
    <g id="xtick_1">
     <g id="line2d_1">
      <path d="M 82.591214 465.84 
L 82.591214 22.32 
" clip-path="url(#pd971aedd0a)" style="fill: none; stroke: #b0b0b0; stroke-width: 0.8; stroke-linecap: square"/>
     </g>
     <g id="line2d_2">
      <defs>
       <path id="m599e1d9fb1" d="M 0 0 
L 0 3.5 
" style="stroke: #000000; stroke-width: 0.8"/>
      </defs>
      <g>
       <use xlink:href="#m599e1d9fb1" x="82.591214" y="465.84" style="stroke: #000000; stroke-width: 0.8"/>
      </g>
     </g>
     <g id="text_1">
      <!-- 0.00 -->
      <g transform="translate(71.458402 480.438437) scale(0.1 -0.1)">
       <defs>
        <path id="DejaVuSans-30" d="M 2034 4250 
Q 1547 4250 1301 3770 
Q 1056 3291 1056 2328 
Q 1056 1369 1301 889 
Q 1547 409 2034 409 
Q 2525 409 2770 889 
Q 3016 1369 3016 2328 
Q 3016 3291 2770 3770 
Q 2525 4250 2034 4250 
z
M 2034 4750 
Q 2819 4750 3233 4129 
Q 3647 3509 3647 2328 
Q 3647 1150 3233 529 
Q 2819 -91 2034 -91 
Q 1250 -91 836 529 
Q 422 1150 422 2328 
Q 422 3509 836 4129 
Q 1250 4750 2034 4750 
z
" transform="scale(0.015625)"/>
        <path id="DejaVuSans-2e" d="M 684 794 
L 1344 794 
L 1344 0 
L 684 0 
L 684 794 
z
" transform="scale(0.015625)"/>
       </defs>
       <use xlink:href="#DejaVuSans-30"/>
       <use xlink:href="#DejaVuSans-2e" x="63.623047"/>
       <use xlink:href="#DejaVuSans-30" x="95.410156"/>
       <use xlink:href="#DejaVuSans-30" x="159.033203"/>
      </g>
     </g>
    </g>
    <g id="xtick_2">
     <g id="line2d_3">
      <path d="M 158.67908 465.84 
L 158.67908 22.32 
" clip-path="url(#pd971aedd0a)" style="fill: none; stroke: #b0b0b0; stroke-width: 0.8; stroke-linecap: square"/>
     </g>
     <g id="line2d_4">
      <g>
       <use xlink:href="#m599e1d9fb1" x="158.67908" y="465.84" style="stroke: #000000; stroke-width: 0.8"/>
      </g>
     </g>
     <g id="text_2">
      <!-- 0.25 -->
      <g transform="translate(147.546267 480.438437) scale(0.1 -0.1)">
       <defs>
        <path id="DejaVuSans-32" d="M 1228 531 
L 3431 531 
L 3431 0 
L 469 0 
L 469 531 
Q 828 903 1448 1529 
Q 2069 2156 2228 2338 
Q 2531 2678 2651 2914 
Q 2772 3150 2772 3378 
Q 2772 3750 2511 3984 
Q 2250 4219 1831 4219 
Q 1534 4219 1204 4116 
Q 875 4013 500 3803 
L 500 4441 
Q 881 4594 1212 4672 
Q 1544 4750 1819 4750 
Q 2544 4750 2975 4387 
Q 3406 4025 3406 3419 
Q 3406 3131 3298 2873 
Q 3191 2616 2906 2266 
Q 2828 2175 2409 1742 
Q 1991 1309 1228 531 
z
" transform="scale(0.015625)"/>
        <path id="DejaVuSans-35" d="M 691 4666 
L 3169 4666 
L 3169 4134 
L 1269 4134 
L 1269 2991 
Q 1406 3038 1543 3061 
Q 1681 3084 1819 3084 
Q 2600 3084 3056 2656 
Q 3513 2228 3513 1497 
Q 3513 744 3044 326 
Q 2575 -91 1722 -91 
Q 1428 -91 1123 -41 
Q 819 9 494 109 
L 494 744 
Q 775 591 1075 516 
Q 1375 441 1709 441 
Q 2250 441 2565 725 
Q 2881 1009 2881 1497 
Q 2881 1984 2565 2268 
Q 2250 2553 1709 2553 
Q 1456 2553 1204 2497 
Q 953 2441 691 2322 
L 691 4666 
z
" transform="scale(0.015625)"/>
       </defs>
       <use xlink:href="#DejaVuSans-30"/>
       <use xlink:href="#DejaVuSans-2e" x="63.623047"/>
       <use xlink:href="#DejaVuSans-32" x="95.410156"/>
       <use xlink:href="#DejaVuSans-35" x="159.033203"/>
      </g>
     </g>
    </g>
    <g id="xtick_3">
     <g id="line2d_5">
      <path d="M 234.766945 465.84 
L 234.766945 22.32 
" clip-path="url(#pd971aedd0a)" style="fill: none; stroke: #b0b0b0; stroke-width: 0.8; stroke-linecap: square"/>
     </g>
     <g id="line2d_6">
      <g>
       <use xlink:href="#m599e1d9fb1" x="234.766945" y="465.84" style="stroke: #000000; stroke-width: 0.8"/>
      </g>
     </g>
     <g id="text_3">
      <!-- 0.50 -->
      <g transform="translate(223.634133 480.438437) scale(0.1 -0.1)">
       <use xlink:href="#DejaVuSans-30"/>
       <use xlink:href="#DejaVuSans-2e" x="63.623047"/>
       <use xlink:href="#DejaVuSans-35" x="95.410156"/>
       <use xlink:href="#DejaVuSans-30" x="159.033203"/>
      </g>
     </g>
    </g>
    <g id="xtick_4">
     <g id="line2d_7">
      <path d="M 310.854811 465.84 
L 310.854811 22.32 
" clip-path="url(#pd971aedd0a)" style="fill: none; stroke: #b0b0b0; stroke-width: 0.8; stroke-linecap: square"/>
     </g>
     <g id="line2d_8">
      <g>
       <use xlink:href="#m599e1d9fb1" x="310.854811" y="465.84" style="stroke: #000000; stroke-width: 0.8"/>
      </g>
     </g>
     <g id="text_4">
      <!-- 0.75 -->
      <g transform="translate(299.721998 480.438437) scale(0.1 -0.1)">
       <defs>
        <path id="DejaVuSans-37" d="M 525 4666 
L 3525 4666 
L 3525 4397 
L 1831 0 
L 1172 0 
L 2766 4134 
L 525 4134 
L 525 4666 
z
" transform="scale(0.015625)"/>
       </defs>
       <use xlink:href="#DejaVuSans-30"/>
       <use xlink:href="#DejaVuSans-2e" x="63.623047"/>
       <use xlink:href="#DejaVuSans-37" x="95.410156"/>
       <use xlink:href="#DejaVuSans-35" x="159.033203"/>
      </g>
     </g>
    </g>
    <g id="xtick_5">
     <g id="line2d_9">
      <path d="M 386.942676 465.84 
L 386.942676 22.32 
" clip-path="url(#pd971aedd0a)" style="fill: none; stroke: #b0b0b0; stroke-width: 0.8; stroke-linecap: square"/>
     </g>
     <g id="line2d_10">
      <g>
       <use xlink:href="#m599e1d9fb1" x="386.942676" y="465.84" style="stroke: #000000; stroke-width: 0.8"/>
      </g>
     </g>
     <g id="text_5">
      <!-- 1.00 -->
      <g transform="translate(375.809864 480.438437) scale(0.1 -0.1)">
       <defs>
        <path id="DejaVuSans-31" d="M 794 531 
L 1825 531 
L 1825 4091 
L 703 3866 
L 703 4441 
L 1819 4666 
L 2450 4666 
L 2450 531 
L 3481 531 
L 3481 0 
L 794 0 
L 794 531 
z
" transform="scale(0.015625)"/>
       </defs>
       <use xlink:href="#DejaVuSans-31"/>
       <use xlink:href="#DejaVuSans-2e" x="63.623047"/>
       <use xlink:href="#DejaVuSans-30" x="95.410156"/>
       <use xlink:href="#DejaVuSans-30" x="159.033203"/>
      </g>
     </g>
    </g>
    <g id="xtick_6">
     <g id="line2d_11">
      <path d="M 463.030542 465.84 
L 463.030542 22.32 
" clip-path="url(#pd971aedd0a)" style="fill: none; stroke: #b0b0b0; stroke-width: 0.8; stroke-linecap: square"/>
     </g>
     <g id="line2d_12">
      <g>
       <use xlink:href="#m599e1d9fb1" x="463.030542" y="465.84" style="stroke: #000000; stroke-width: 0.8"/>
      </g>
     </g>
     <g id="text_6">
      <!-- 1.25 -->
      <g transform="translate(451.897729 480.438437) scale(0.1 -0.1)">
       <use xlink:href="#DejaVuSans-31"/>
       <use xlink:href="#DejaVuSans-2e" x="63.623047"/>
       <use xlink:href="#DejaVuSans-32" x="95.410156"/>
       <use xlink:href="#DejaVuSans-35" x="159.033203"/>
      </g>
     </g>
    </g>
    <g id="xtick_7">
     <g id="line2d_13">
      <path d="M 539.118408 465.84 
L 539.118408 22.32 
" clip-path="url(#pd971aedd0a)" style="fill: none; stroke: #b0b0b0; stroke-width: 0.8; stroke-linecap: square"/>
     </g>
     <g id="line2d_14">
      <g>
       <use xlink:href="#m599e1d9fb1" x="539.118408" y="465.84" style="stroke: #000000; stroke-width: 0.8"/>
      </g>
     </g>
     <g id="text_7">
      <!-- 1.50 -->
      <g transform="translate(527.985595 480.438437) scale(0.1 -0.1)">
       <use xlink:href="#DejaVuSans-31"/>
       <use xlink:href="#DejaVuSans-2e" x="63.623047"/>
       <use xlink:href="#DejaVuSans-35" x="95.410156"/>
       <use xlink:href="#DejaVuSans-30" x="159.033203"/>
      </g>
     </g>
    </g>
    <g id="xtick_8">
     <g id="line2d_15">
      <path d="M 615.206273 465.84 
L 615.206273 22.32 
" clip-path="url(#pd971aedd0a)" style="fill: none; stroke: #b0b0b0; stroke-width: 0.8; stroke-linecap: square"/>
     </g>
     <g id="line2d_16">
      <g>
       <use xlink:href="#m599e1d9fb1" x="615.206273" y="465.84" style="stroke: #000000; stroke-width: 0.8"/>
      </g>
     </g>
     <g id="text_8">
      <!-- 1.75 -->
      <g transform="translate(604.073461 480.438437) scale(0.1 -0.1)">
       <use xlink:href="#DejaVuSans-31"/>
       <use xlink:href="#DejaVuSans-2e" x="63.623047"/>
       <use xlink:href="#DejaVuSans-37" x="95.410156"/>
       <use xlink:href="#DejaVuSans-35" x="159.033203"/>
      </g>
     </g>
    </g>
    <g id="xtick_9">
     <g id="line2d_17">
      <path d="M 691.294139 465.84 
L 691.294139 22.32 
" clip-path="url(#pd971aedd0a)" style="fill: none; stroke: #b0b0b0; stroke-width: 0.8; stroke-linecap: square"/>
     </g>
     <g id="line2d_18">
      <g>
       <use xlink:href="#m599e1d9fb1" x="691.294139" y="465.84" style="stroke: #000000; stroke-width: 0.8"/>
      </g>
     </g>
     <g id="text_9">
      <!-- 2.00 -->
      <g transform="translate(680.161326 480.438437) scale(0.1 -0.1)">
       <use xlink:href="#DejaVuSans-32"/>
       <use xlink:href="#DejaVuSans-2e" x="63.623047"/>
       <use xlink:href="#DejaVuSans-30" x="95.410156"/>
       <use xlink:href="#DejaVuSans-30" x="159.033203"/>
      </g>
     </g>
    </g>
    <g id="text_10">
     <!-- $x$ -->
     <g transform="translate(383.960938 494.116562) scale(0.1 -0.1)">
      <defs>
       <path id="DejaVuSans-Oblique-78" d="M 3841 3500 
L 2234 1784 
L 3219 0 
L 2559 0 
L 1819 1388 
L 531 0 
L -166 0 
L 1556 1844 
L 641 3500 
L 1300 3500 
L 1972 2234 
L 3144 3500 
L 3841 3500 
z
" transform="scale(0.015625)"/>
      </defs>
      <use xlink:href="#DejaVuSans-Oblique-78" transform="translate(0 0.3125)"/>
     </g>
    </g>
   </g>
   <g id="matplotlib.axis_2">
    <g id="ytick_1">
     <g id="line2d_19">
      <path d="M 52.160938 42.872549 
L 721.760938 42.872549 
" clip-path="url(#pd971aedd0a)" style="fill: none; stroke: #b0b0b0; stroke-width: 0.8; stroke-linecap: square"/>
     </g>
     <g id="line2d_20">
      <defs>
       <path id="m2eb46e2c36" d="M 0 0 
L -3.5 0 
" style="stroke: #000000; stroke-width: 0.8"/>
      </defs>
      <g>
       <use xlink:href="#m2eb46e2c36" x="52.160938" y="42.872549" style="stroke: #000000; stroke-width: 0.8"/>
      </g>
     </g>
     <g id="text_11">
      <!-- −2.5 -->
      <g transform="translate(20.878125 46.671768) scale(0.1 -0.1)">
       <defs>
        <path id="DejaVuSans-2212" d="M 678 2272 
L 4684 2272 
L 4684 1741 
L 678 1741 
L 678 2272 
z
" transform="scale(0.015625)"/>
       </defs>
       <use xlink:href="#DejaVuSans-2212"/>
       <use xlink:href="#DejaVuSans-32" x="83.789062"/>
       <use xlink:href="#DejaVuSans-2e" x="147.412109"/>
       <use xlink:href="#DejaVuSans-35" x="179.199219"/>
      </g>
     </g>
    </g>
    <g id="ytick_2">
     <g id="line2d_21">
      <path d="M 52.160938 100.420467 
L 721.760938 100.420467 
" clip-path="url(#pd971aedd0a)" style="fill: none; stroke: #b0b0b0; stroke-width: 0.8; stroke-linecap: square"/>
     </g>
     <g id="line2d_22">
      <g>
       <use xlink:href="#m2eb46e2c36" x="52.160938" y="100.420467" style="stroke: #000000; stroke-width: 0.8"/>
      </g>
     </g>
     <g id="text_12">
      <!-- −2.0 -->
      <g transform="translate(20.878125 104.219686) scale(0.1 -0.1)">
       <use xlink:href="#DejaVuSans-2212"/>
       <use xlink:href="#DejaVuSans-32" x="83.789062"/>
       <use xlink:href="#DejaVuSans-2e" x="147.412109"/>
       <use xlink:href="#DejaVuSans-30" x="179.199219"/>
      </g>
     </g>
    </g>
    <g id="ytick_3">
     <g id="line2d_23">
      <path d="M 52.160938 157.968385 
L 721.760938 157.968385 
" clip-path="url(#pd971aedd0a)" style="fill: none; stroke: #b0b0b0; stroke-width: 0.8; stroke-linecap: square"/>
     </g>
     <g id="line2d_24">
      <g>
       <use xlink:href="#m2eb46e2c36" x="52.160938" y="157.968385" style="stroke: #000000; stroke-width: 0.8"/>
      </g>
     </g>
     <g id="text_13">
      <!-- −1.5 -->
      <g transform="translate(20.878125 161.767603) scale(0.1 -0.1)">
       <use xlink:href="#DejaVuSans-2212"/>
       <use xlink:href="#DejaVuSans-31" x="83.789062"/>
       <use xlink:href="#DejaVuSans-2e" x="147.412109"/>
       <use xlink:href="#DejaVuSans-35" x="179.199219"/>
      </g>
     </g>
    </g>
    <g id="ytick_4">
     <g id="line2d_25">
      <path d="M 52.160938 215.516303 
L 721.760938 215.516303 
" clip-path="url(#pd971aedd0a)" style="fill: none; stroke: #b0b0b0; stroke-width: 0.8; stroke-linecap: square"/>
     </g>
     <g id="line2d_26">
      <g>
       <use xlink:href="#m2eb46e2c36" x="52.160938" y="215.516303" style="stroke: #000000; stroke-width: 0.8"/>
      </g>
     </g>
     <g id="text_14">
      <!-- −1.0 -->
      <g transform="translate(20.878125 219.315521) scale(0.1 -0.1)">
       <use xlink:href="#DejaVuSans-2212"/>
       <use xlink:href="#DejaVuSans-31" x="83.789062"/>
       <use xlink:href="#DejaVuSans-2e" x="147.412109"/>
       <use xlink:href="#DejaVuSans-30" x="179.199219"/>
      </g>
     </g>
    </g>
    <g id="ytick_5">
     <g id="line2d_27">
      <path d="M 52.160938 273.06422 
L 721.760938 273.06422 
" clip-path="url(#pd971aedd0a)" style="fill: none; stroke: #b0b0b0; stroke-width: 0.8; stroke-linecap: square"/>
     </g>
     <g id="line2d_28">
      <g>
       <use xlink:href="#m2eb46e2c36" x="52.160938" y="273.06422" style="stroke: #000000; stroke-width: 0.8"/>
      </g>
     </g>
     <g id="text_15">
      <!-- −0.5 -->
      <g transform="translate(20.878125 276.863439) scale(0.1 -0.1)">
       <use xlink:href="#DejaVuSans-2212"/>
       <use xlink:href="#DejaVuSans-30" x="83.789062"/>
       <use xlink:href="#DejaVuSans-2e" x="147.412109"/>
       <use xlink:href="#DejaVuSans-35" x="179.199219"/>
      </g>
     </g>
    </g>
    <g id="ytick_6">
     <g id="line2d_29">
      <path d="M 52.160938 330.612138 
L 721.760938 330.612138 
" clip-path="url(#pd971aedd0a)" style="fill: none; stroke: #b0b0b0; stroke-width: 0.8; stroke-linecap: square"/>
     </g>
     <g id="line2d_30">
      <g>
       <use xlink:href="#m2eb46e2c36" x="52.160938" y="330.612138" style="stroke: #000000; stroke-width: 0.8"/>
      </g>
     </g>
     <g id="text_16">
      <!-- 0.0 -->
      <g transform="translate(29.257813 334.411357) scale(0.1 -0.1)">
       <use xlink:href="#DejaVuSans-30"/>
       <use xlink:href="#DejaVuSans-2e" x="63.623047"/>
       <use xlink:href="#DejaVuSans-30" x="95.410156"/>
      </g>
     </g>
    </g>
    <g id="ytick_7">
     <g id="line2d_31">
      <path d="M 52.160938 388.160056 
L 721.760938 388.160056 
" clip-path="url(#pd971aedd0a)" style="fill: none; stroke: #b0b0b0; stroke-width: 0.8; stroke-linecap: square"/>
     </g>
     <g id="line2d_32">
      <g>
       <use xlink:href="#m2eb46e2c36" x="52.160938" y="388.160056" style="stroke: #000000; stroke-width: 0.8"/>
      </g>
     </g>
     <g id="text_17">
      <!-- 0.5 -->
      <g transform="translate(29.257813 391.959275) scale(0.1 -0.1)">
       <use xlink:href="#DejaVuSans-30"/>
       <use xlink:href="#DejaVuSans-2e" x="63.623047"/>
       <use xlink:href="#DejaVuSans-35" x="95.410156"/>
      </g>
     </g>
    </g>
    <g id="ytick_8">
     <g id="line2d_33">
      <path d="M 52.160938 445.707974 
L 721.760938 445.707974 
" clip-path="url(#pd971aedd0a)" style="fill: none; stroke: #b0b0b0; stroke-width: 0.8; stroke-linecap: square"/>
     </g>
     <g id="line2d_34">
      <g>
       <use xlink:href="#m2eb46e2c36" x="52.160938" y="445.707974" style="stroke: #000000; stroke-width: 0.8"/>
      </g>
     </g>
     <g id="text_18">
      <!-- 1.0 -->
      <g transform="translate(29.257813 449.507193) scale(0.1 -0.1)">
       <use xlink:href="#DejaVuSans-31"/>
       <use xlink:href="#DejaVuSans-2e" x="63.623047"/>
       <use xlink:href="#DejaVuSans-30" x="95.410156"/>
      </g>
     </g>
    </g>
    <g id="text_19">
     <!-- $c_p$ -->
     <g transform="translate(13.778125 249.23) rotate(-90) scale(0.1 -0.1)">
      <defs>
       <path id="DejaVuSans-Oblique-63" d="M 3431 3366 
L 3316 2797 
Q 3109 2947 2876 3022 
Q 2644 3097 2394 3097 
Q 2119 3097 1870 3000 
Q 1622 2903 1453 2725 
Q 1184 2453 1037 2087 
Q 891 1722 891 1331 
Q 891 859 1127 628 
Q 1363 397 1844 397 
Q 2081 397 2348 469 
Q 2616 541 2906 684 
L 2797 116 
Q 2547 13 2283 -39 
Q 2019 -91 1741 -91 
Q 1044 -91 669 257 
Q 294 606 294 1253 
Q 294 1797 489 2255 
Q 684 2713 1069 3078 
Q 1331 3328 1684 3456 
Q 2038 3584 2456 3584 
Q 2700 3584 2940 3529 
Q 3181 3475 3431 3366 
z
" transform="scale(0.015625)"/>
       <path id="DejaVuSans-Oblique-70" d="M 3175 2156 
Q 3175 2616 2975 2859 
Q 2775 3103 2400 3103 
Q 2144 3103 1911 2972 
Q 1678 2841 1497 2591 
Q 1319 2344 1212 1994 
Q 1106 1644 1106 1300 
Q 1106 863 1306 627 
Q 1506 391 1875 391 
Q 2147 391 2380 519 
Q 2613 647 2778 891 
Q 2956 1147 3065 1494 
Q 3175 1841 3175 2156 
z
M 1394 2969 
Q 1625 3272 1939 3428 
Q 2253 3584 2638 3584 
Q 3175 3584 3472 3232 
Q 3769 2881 3769 2247 
Q 3769 1728 3584 1258 
Q 3400 788 3053 416 
Q 2822 169 2531 39 
Q 2241 -91 1919 -91 
Q 1547 -91 1294 64 
Q 1041 219 916 525 
L 556 -1331 
L -19 -1331 
L 922 3500 
L 1497 3500 
L 1394 2969 
z
" transform="scale(0.015625)"/>
      </defs>
      <use xlink:href="#DejaVuSans-Oblique-63"/>
      <use xlink:href="#DejaVuSans-Oblique-70" transform="translate(54.980469 -16.40625) scale(0.7)"/>
     </g>
    </g>
   </g>
   <g id="line2d_35">
    <path d="M 386.942676 339.237508 
L 385.259613 339.348178 
L 371.256402 339.332688 
L 353.774454 339.09355 
L 340.297771 338.70105 
L 326.772392 338.025241 
L 317.748371 337.354006 
L 308.71522 336.469986 
L 299.685112 335.372869 
L 290.651961 334.079926 
L 281.621853 332.574145 
L 268.087343 330.072859 
L 250.069737 326.712433 
L 236.593054 324.369789 
L 218.688058 321.598282 
L 205.327028 319.791817 
L 192.039043 318.280093 
L 178.851495 317.217005 
L 174.481008 316.951761 
L 161.466939 316.557039 
L 152.896402 316.676494 
L 148.647655 316.946891 
L 144.432388 317.328861 
L 140.250599 318.001399 
L 136.114462 318.553643 
L 132.027022 319.497908 
L 128.000452 320.67149 
L 124.04997 321.96135 
L 120.193837 323.728431 
L 116.459445 325.741457 
L 109.483709 331.028408 
L 106.318454 334.301979 
L 103.411898 338.194393 
L 100.785345 342.484633 
L 98.441838 346.890254 
L 96.369205 351.98247 
L 94.543096 357.341824 
L 92.939164 362.768277 
L 90.282176 375.753674 
L 89.180423 382.121535 
L 87.329966 396.850788 
L 85.856905 412.872953 
L 84.694283 428.682439 
L 83.446442 445.056583 
L 83.154264 445.441908 
L 82.926001 442.675454 
L 82.758607 433.630894 
L 82.597301 405.085713 
L 82.649041 361.495235 
L 82.926001 310.969989 
L 83.446442 268.008002 
L 83.799489 250.570078 
L 84.694283 227.075025 
L 85.242115 220.110468 
L 85.856905 214.647452 
L 86.550827 210.897899 
L 88.200412 207.442854 
L 89.180423 207.167879 
L 90.282176 207.75739 
L 91.530017 208.864885 
L 94.543096 212.073491 
L 96.369205 214.526759 
L 100.785345 219.646153 
L 103.411898 222.476179 
L 109.483709 228.316922 
L 116.459445 234.017807 
L 120.193837 236.824339 
L 128.000452 242.050653 
L 136.114462 246.814544 
L 144.432388 251.324667 
L 152.896402 255.587855 
L 161.466939 259.537454 
L 170.125738 263.283344 
L 178.851495 266.816148 
L 187.632034 270.135341 
L 196.46127 273.231889 
L 205.327028 276.096958 
L 214.226265 278.713514 
L 223.155937 281.089567 
L 232.109957 283.227134 
L 241.079195 285.146885 
L 250.069737 286.882214 
L 259.072453 288.449402 
L 272.594789 290.517098 
L 286.135385 292.32939 
L 304.198644 294.495368 
L 322.261904 296.583065 
L 331.282881 306.21403 
L 335.79337 310.386557 
L 340.297771 313.858386 
L 344.799129 316.649682 
L 349.291357 318.882482 
L 353.774454 320.688284 
L 358.236246 322.207074 
L 375.292102 327.320209 
L 379.029538 328.661122 
L 382.368274 330.255065 
L 385.259613 332.359516 
L 386.973112 339.237508 
L 390.64359 342.667668 
L 392.926226 345.006513 
L 395.567997 347.054422 
L 398.629773 348.794234 
L 402.172424 350.065855 
L 406.278125 350.681785 
L 411.032095 350.520662 
L 416.540856 349.580515 
L 422.920063 348.019596 
L 430.306673 346.093069 
L 438.861992 344.069871 
L 448.768632 342.133361 
L 460.245726 340.381263 
L 473.536754 338.834181 
L 488.930851 337.492438 
L 506.75976 336.337634 
L 527.406963 335.348076 
L 551.322901 334.510235 
L 579.018884 333.800914 
L 611.097528 333.205435 
L 648.249711 332.711037 
L 691.275878 332.256696 
L 691.275878 332.256696 
" clip-path="url(#pd971aedd0a)" style="fill: none; stroke: #1f77b4; stroke-width: 1.5; stroke-linecap: square"/>
   </g>
   <g id="line2d_36">
    <path d="M 386.942676 330.872108 
L 385.259613 329.287046 
L 379.029538 322.068735 
L 353.774454 321.378271 
L 335.79337 320.681087 
L 322.261904 319.945862 
L 308.71522 318.9453 
L 299.685112 318.083828 
L 290.651961 317.039395 
L 281.621853 315.804913 
L 272.594789 314.402316 
L 263.576855 312.80426 
L 254.571095 311.019796 
L 241.079195 308.080503 
L 223.155937 303.90606 
L 183.234156 294.476898 
L 161.466939 289.55334 
L 157.169496 288.761369 
L 148.647655 286.971436 
L 140.250599 285.543587 
L 136.114462 284.912982 
L 128.000452 283.877417 
L 120.193837 283.300971 
L 116.459445 283.339251 
L 109.483709 283.85558 
L 106.318454 284.70069 
L 103.411898 285.758037 
L 100.785345 287.179524 
L 98.441838 288.96828 
L 96.369205 291.069908 
L 94.543096 293.451373 
L 92.939164 296.554242 
L 91.530017 300.272783 
L 89.180423 308.78943 
L 88.200412 314.596479 
L 87.329966 321.126935 
L 86.550827 328.32196 
L 85.856905 335.994043 
L 84.694283 356.784259 
L 84.216451 367.264486 
L 83.799489 381.09081 
L 82.926001 420.94859 
L 82.597301 445.247235 
L 83.154264 407.688819 
L 83.799489 382.911246 
L 84.216451 368.162676 
L 84.694283 355.830747 
L 85.856905 336.557429 
L 86.550827 328.003259 
L 88.200412 314.023406 
L 89.180423 309.248498 
L 90.282176 304.434464 
L 91.530017 300.280545 
L 94.543096 293.416953 
L 96.369205 291.024545 
L 98.441838 288.979025 
L 100.785345 287.292969 
L 103.411898 285.861138 
L 106.318454 284.616278 
L 109.483709 284.106618 
L 112.877228 283.328314 
L 116.459445 283.454062 
L 120.193837 283.328314 
L 124.04997 283.473193 
L 128.000452 284.016594 
L 136.114462 284.866725 
L 140.250599 285.472978 
L 161.466939 289.631086 
L 170.125738 291.501854 
L 209.773603 300.738175 
L 232.109957 306.031509 
L 245.574466 309.1081 
L 259.072453 311.951982 
L 268.087343 313.646417 
L 277.108321 315.146238 
L 286.135385 316.464362 
L 295.165493 317.603431 
L 304.198644 318.551224 
L 313.231796 319.329117 
L 326.772392 320.229636 
L 340.297771 320.892125 
L 358.236246 321.528952 
L 379.029538 322.075892 
L 385.259613 329.287046 
L 386.973112 330.872108 
L 392.926226 337.994067 
L 398.629773 345.853074 
L 402.172424 349.27313 
L 406.278125 351.691429 
L 411.035138 352.834275 
L 416.540856 352.61289 
L 422.920063 351.183109 
L 438.861992 346.407623 
L 448.771676 343.916229 
L 460.24877 341.672094 
L 473.542841 339.732862 
L 488.936938 338.092028 
L 506.768891 336.71877 
L 527.419137 335.57787 
L 551.338119 334.634644 
L 579.040189 333.853113 
L 611.12492 333.212262 
L 648.286234 332.685946 
L 691.324574 332.21784 
L 691.324574 332.21784 
" clip-path="url(#pd971aedd0a)" style="fill: none; stroke: #ff7f0e; stroke-width: 1.5; stroke-linecap: square"/>
   </g>
   <g id="line2d_37">
    <path d="M 386.942676 343.734305 
L 385.259613 339.100196 
L 382.368274 336.608981 
L 379.029538 334.32236 
L 375.292102 332.151542 
L 371.256402 330.049785 
L 367.016786 328.035847 
L 362.661517 326.105449 
L 353.774454 322.521626 
L 344.799129 319.230201 
L 335.79337 316.193459 
L 322.261904 311.964389 
L 308.71522 308.042743 
L 286.135385 302.011586 
L 268.087343 297.42819 
L 263.576855 296.124177 
L 259.072453 294.585063 
L 254.571095 292.584386 
L 250.069737 289.885638 
L 245.574466 286.110615 
L 241.079195 281.026243 
L 236.593054 274.618312 
L 232.109957 267.166095 
L 227.629903 264.784317 
L 209.773603 260.776698 
L 200.889584 258.599436 
L 192.039043 256.187959 
L 183.234156 253.445807 
L 178.851495 251.919521 
L 174.481008 250.276232 
L 170.125738 248.508512 
L 165.785686 246.602667 
L 161.466939 244.544651 
L 157.169496 242.320022 
L 152.896402 239.913902 
L 148.647655 237.317118 
L 144.432388 234.520124 
L 140.250599 231.509831 
L 136.114462 228.25681 
L 132.027022 224.787963 
L 128.000452 221.056962 
L 124.04997 217.064422 
L 120.193837 212.761711 
L 116.459445 208.170937 
L 112.877228 203.291555 
L 109.483709 198.062143 
L 106.318454 192.640412 
L 103.411898 186.994342 
L 100.785345 181.226664 
L 98.441838 175.328371 
L 96.369205 169.579001 
L 94.543096 163.852002 
L 91.530017 152.996743 
L 90.282176 148.105114 
L 89.180423 143.034847 
L 87.329966 135.983862 
L 86.550827 133.937605 
L 85.856905 132.439318 
L 85.242115 133.702668 
L 84.694283 136.825367 
L 84.216451 142.444761 
L 83.799489 155.239059 
L 83.446442 169.614654 
L 83.154264 188.768655 
L 82.926001 214.451718 
L 82.649041 276.987197 
L 82.597301 340.91788 
L 82.758607 396.886776 
L 83.154264 429.807086 
L 83.446442 440.271729 
L 83.799489 444.540382 
L 84.216451 445.648875 
L 84.694283 443.88535 
L 85.242115 440.462138 
L 87.329966 423.240701 
L 88.200412 416.528611 
L 89.180423 409.862282 
L 90.282176 403.17798 
L 91.530017 396.847789 
L 92.939164 390.382255 
L 94.543096 383.672365 
L 96.369205 377.667796 
L 98.441838 371.923205 
L 100.785345 366.28083 
L 103.411898 361.025958 
L 106.318454 356.285821 
L 109.483709 351.859872 
L 112.877228 347.815902 
L 116.459445 344.614256 
L 120.193837 341.501319 
L 124.04997 338.902934 
L 128.000452 336.698609 
L 132.027022 334.738641 
L 136.114462 333.009628 
L 140.250599 331.634212 
L 144.432388 330.407176 
L 148.647655 329.412029 
L 157.169496 327.863546 
L 165.785686 326.817737 
L 170.125738 326.410306 
L 178.851495 325.943482 
L 187.632034 325.727356 
L 196.46127 325.772007 
L 205.327028 325.99044 
L 214.226265 326.377494 
L 227.629903 327.217464 
L 241.079195 328.284762 
L 254.571095 329.585506 
L 268.087343 331.111112 
L 281.621853 332.86608 
L 295.165493 334.856144 
L 331.282881 340.390071 
L 340.297771 341.426835 
L 349.291357 342.286161 
L 358.236246 342.931041 
L 367.016786 343.378652 
L 379.029538 343.740805 
L 385.259613 343.812292 
L 386.973112 343.734305 
L 388.674436 344.497725 
L 390.64359 345.10123 
L 392.926226 345.644988 
L 395.567997 346.099493 
L 398.629773 346.418314 
L 402.172424 346.538007 
L 406.278125 346.407623 
L 411.032095 345.988107 
L 416.537813 345.269028 
L 438.855905 341.820861 
L 448.762545 340.513345 
L 460.236596 339.250791 
L 473.521537 338.071994 
L 488.909547 337.000829 
L 506.732368 336.041234 
L 527.370441 335.192491 
L 551.274205 334.446874 
L 578.95497 333.798644 
L 611.01231 333.241846 
L 691.129789 332.295544 
L 691.129789 332.295544 
" clip-path="url(#pd971aedd0a)" style="fill: none; stroke: #2ca02c; stroke-width: 1.5; stroke-linecap: square"/>
   </g>
   <g id="line2d_38">
    <path d="M 386.942676 345.152875 
L 385.259613 343.154969 
L 382.368274 341.380817 
L 375.292102 337.503598 
L 367.016786 333.289625 
L 358.236246 329.050783 
L 349.291357 324.959949 
L 340.297771 321.038308 
L 326.772392 315.457419 
L 313.231796 310.144337 
L 259.072453 289.405836 
L 241.079195 282.051691 
L 218.688058 272.210304 
L 200.889584 263.810402 
L 183.234156 255.280045 
L 174.481008 251.348599 
L 170.125738 249.516607 
L 165.785686 247.540123 
L 161.466939 244.85494 
L 157.169496 240.34153 
L 152.896402 231.113974 
L 148.647655 213.945689 
L 144.432388 190.290024 
L 136.114462 185.428589 
L 132.027022 183.062409 
L 128.000452 180.601684 
L 124.04997 177.960986 
L 120.193837 175.038986 
L 116.459445 171.717686 
L 112.877228 167.868504 
L 109.483709 163.372699 
L 106.318454 158.080777 
L 103.411898 151.94223 
L 100.785345 144.991449 
L 98.441838 137.33801 
L 96.369205 129.057903 
L 94.543096 120.273404 
L 92.939164 111.090103 
L 91.530017 101.822799 
L 90.282176 92.432945 
L 88.200412 73.92777 
L 85.242115 45.65347 
L 84.694283 42.48 
L 84.216451 43.052839 
L 83.799489 48.33978 
L 83.446442 60.735186 
L 83.154264 79.175731 
L 82.926001 102.685685 
L 82.649041 176.445638 
L 82.597301 255.564186 
L 82.758607 334.070858 
L 83.154264 394.690247 
L 83.446442 415.262241 
L 83.799489 429.724843 
L 84.216451 438.864612 
L 84.694283 444.093951 
L 85.242115 445.68 
L 85.856905 445.008449 
L 86.550827 442.363679 
L 87.329966 438.716194 
L 90.282176 422.960147 
L 92.939164 410.937047 
L 94.543096 404.502427 
L 96.369205 398.334616 
L 98.441838 392.188267 
L 100.785345 386.058865 
L 103.411898 380.241168 
L 106.318454 374.801111 
L 109.483709 369.749181 
L 112.877228 365.086959 
L 116.459445 360.893615 
L 120.193837 357.206634 
L 124.04997 353.951636 
L 128.000452 351.00362 
L 132.027022 348.392485 
L 136.114462 346.189414 
L 140.250599 344.13043 
L 144.432388 342.371244 
L 148.647655 340.814622 
L 152.896402 339.474272 
L 161.466939 337.222191 
L 165.785686 336.286017 
L 170.125738 335.47652 
L 178.851495 334.197777 
L 187.632034 333.196332 
L 196.46127 332.528497 
L 205.327028 332.044053 
L 214.226265 331.783122 
L 227.629903 331.670876 
L 241.079195 331.792283 
L 259.072453 332.366369 
L 272.594789 333.021017 
L 286.135385 333.875805 
L 299.682069 334.971327 
L 313.231796 336.346609 
L 322.261904 337.429932 
L 335.79337 339.326048 
L 358.236246 342.667668 
L 367.016786 343.706136 
L 375.292102 344.497725 
L 382.368274 345.002207 
L 386.973112 345.152875 
L 388.674436 344.799703 
L 398.626729 344.430797 
L 406.278125 343.881589 
L 416.534769 342.889707 
L 438.846775 340.561754 
L 448.750371 339.640071 
L 460.218334 338.70105 
L 473.497189 337.773494 
L 488.876068 336.886706 
L 506.686716 336.054716 
L 527.309571 335.291717 
L 551.19203 334.600721 
L 578.845404 333.986961 
L 610.869265 333.446544 
L 690.889351 332.398347 
L 690.889351 332.398347 
" clip-path="url(#pd971aedd0a)" style="fill: none; stroke: #d62728; stroke-width: 1.5; stroke-linecap: square"/>
   </g>
   <g id="patch_3">
    <path d="M 52.160938 465.84 
L 52.160938 22.32 
" style="fill: none; stroke: #000000; stroke-width: 0.8; stroke-linejoin: miter; stroke-linecap: square"/>
   </g>
   <g id="patch_4">
    <path d="M 721.760938 465.84 
L 721.760938 22.32 
" style="fill: none; stroke: #000000; stroke-width: 0.8; stroke-linejoin: miter; stroke-linecap: square"/>
   </g>
   <g id="patch_5">
    <path d="M 52.160938 465.84 
L 721.760937 465.84 
" style="fill: none; stroke: #000000; stroke-width: 0.8; stroke-linejoin: miter; stroke-linecap: square"/>
   </g>
   <g id="patch_6">
    <path d="M 52.160938 22.32 
L 721.760937 22.32 
" style="fill: none; stroke: #000000; stroke-width: 0.8; stroke-linejoin: miter; stroke-linecap: square"/>
   </g>
   <g id="text_20">
    <!-- Result plot for $\alpha = -2$ and $Re = 100000$ and $M = 0.1$ -->
    <g transform="translate(229.700938 16.32) scale(0.12 -0.12)">
     <defs>
      <path id="DejaVuSans-52" d="M 2841 2188 
Q 3044 2119 3236 1894 
Q 3428 1669 3622 1275 
L 4263 0 
L 3584 0 
L 2988 1197 
Q 2756 1666 2539 1819 
Q 2322 1972 1947 1972 
L 1259 1972 
L 1259 0 
L 628 0 
L 628 4666 
L 2053 4666 
Q 2853 4666 3247 4331 
Q 3641 3997 3641 3322 
Q 3641 2881 3436 2590 
Q 3231 2300 2841 2188 
z
M 1259 4147 
L 1259 2491 
L 2053 2491 
Q 2509 2491 2742 2702 
Q 2975 2913 2975 3322 
Q 2975 3731 2742 3939 
Q 2509 4147 2053 4147 
L 1259 4147 
z
" transform="scale(0.015625)"/>
      <path id="DejaVuSans-65" d="M 3597 1894 
L 3597 1613 
L 953 1613 
Q 991 1019 1311 708 
Q 1631 397 2203 397 
Q 2534 397 2845 478 
Q 3156 559 3463 722 
L 3463 178 
Q 3153 47 2828 -22 
Q 2503 -91 2169 -91 
Q 1331 -91 842 396 
Q 353 884 353 1716 
Q 353 2575 817 3079 
Q 1281 3584 2069 3584 
Q 2775 3584 3186 3129 
Q 3597 2675 3597 1894 
z
M 3022 2063 
Q 3016 2534 2758 2815 
Q 2500 3097 2075 3097 
Q 1594 3097 1305 2825 
Q 1016 2553 972 2059 
L 3022 2063 
z
" transform="scale(0.015625)"/>
      <path id="DejaVuSans-73" d="M 2834 3397 
L 2834 2853 
Q 2591 2978 2328 3040 
Q 2066 3103 1784 3103 
Q 1356 3103 1142 2972 
Q 928 2841 928 2578 
Q 928 2378 1081 2264 
Q 1234 2150 1697 2047 
L 1894 2003 
Q 2506 1872 2764 1633 
Q 3022 1394 3022 966 
Q 3022 478 2636 193 
Q 2250 -91 1575 -91 
Q 1294 -91 989 -36 
Q 684 19 347 128 
L 347 722 
Q 666 556 975 473 
Q 1284 391 1588 391 
Q 1994 391 2212 530 
Q 2431 669 2431 922 
Q 2431 1156 2273 1281 
Q 2116 1406 1581 1522 
L 1381 1569 
Q 847 1681 609 1914 
Q 372 2147 372 2553 
Q 372 3047 722 3315 
Q 1072 3584 1716 3584 
Q 2034 3584 2315 3537 
Q 2597 3491 2834 3397 
z
" transform="scale(0.015625)"/>
      <path id="DejaVuSans-75" d="M 544 1381 
L 544 3500 
L 1119 3500 
L 1119 1403 
Q 1119 906 1312 657 
Q 1506 409 1894 409 
Q 2359 409 2629 706 
Q 2900 1003 2900 1516 
L 2900 3500 
L 3475 3500 
L 3475 0 
L 2900 0 
L 2900 538 
Q 2691 219 2414 64 
Q 2138 -91 1772 -91 
Q 1169 -91 856 284 
Q 544 659 544 1381 
z
M 1991 3584 
L 1991 3584 
z
" transform="scale(0.015625)"/>
      <path id="DejaVuSans-6c" d="M 603 4863 
L 1178 4863 
L 1178 0 
L 603 0 
L 603 4863 
z
" transform="scale(0.015625)"/>
      <path id="DejaVuSans-74" d="M 1172 4494 
L 1172 3500 
L 2356 3500 
L 2356 3053 
L 1172 3053 
L 1172 1153 
Q 1172 725 1289 603 
Q 1406 481 1766 481 
L 2356 481 
L 2356 0 
L 1766 0 
Q 1100 0 847 248 
Q 594 497 594 1153 
L 594 3053 
L 172 3053 
L 172 3500 
L 594 3500 
L 594 4494 
L 1172 4494 
z
" transform="scale(0.015625)"/>
      <path id="DejaVuSans-20" transform="scale(0.015625)"/>
      <path id="DejaVuSans-70" d="M 1159 525 
L 1159 -1331 
L 581 -1331 
L 581 3500 
L 1159 3500 
L 1159 2969 
Q 1341 3281 1617 3432 
Q 1894 3584 2278 3584 
Q 2916 3584 3314 3078 
Q 3713 2572 3713 1747 
Q 3713 922 3314 415 
Q 2916 -91 2278 -91 
Q 1894 -91 1617 61 
Q 1341 213 1159 525 
z
M 3116 1747 
Q 3116 2381 2855 2742 
Q 2594 3103 2138 3103 
Q 1681 3103 1420 2742 
Q 1159 2381 1159 1747 
Q 1159 1113 1420 752 
Q 1681 391 2138 391 
Q 2594 391 2855 752 
Q 3116 1113 3116 1747 
z
" transform="scale(0.015625)"/>
      <path id="DejaVuSans-6f" d="M 1959 3097 
Q 1497 3097 1228 2736 
Q 959 2375 959 1747 
Q 959 1119 1226 758 
Q 1494 397 1959 397 
Q 2419 397 2687 759 
Q 2956 1122 2956 1747 
Q 2956 2369 2687 2733 
Q 2419 3097 1959 3097 
z
M 1959 3584 
Q 2709 3584 3137 3096 
Q 3566 2609 3566 1747 
Q 3566 888 3137 398 
Q 2709 -91 1959 -91 
Q 1206 -91 779 398 
Q 353 888 353 1747 
Q 353 2609 779 3096 
Q 1206 3584 1959 3584 
z
" transform="scale(0.015625)"/>
      <path id="DejaVuSans-66" d="M 2375 4863 
L 2375 4384 
L 1825 4384 
Q 1516 4384 1395 4259 
Q 1275 4134 1275 3809 
L 1275 3500 
L 2222 3500 
L 2222 3053 
L 1275 3053 
L 1275 0 
L 697 0 
L 697 3053 
L 147 3053 
L 147 3500 
L 697 3500 
L 697 3744 
Q 697 4328 969 4595 
Q 1241 4863 1831 4863 
L 2375 4863 
z
" transform="scale(0.015625)"/>
      <path id="DejaVuSans-72" d="M 2631 2963 
Q 2534 3019 2420 3045 
Q 2306 3072 2169 3072 
Q 1681 3072 1420 2755 
Q 1159 2438 1159 1844 
L 1159 0 
L 581 0 
L 581 3500 
L 1159 3500 
L 1159 2956 
Q 1341 3275 1631 3429 
Q 1922 3584 2338 3584 
Q 2397 3584 2469 3576 
Q 2541 3569 2628 3553 
L 2631 2963 
z
" transform="scale(0.015625)"/>
      <path id="DejaVuSans-Oblique-3b1" d="M 2619 1628 
L 2622 2350 
Q 2625 3088 2069 3091 
Q 1653 3094 1394 2747 
Q 1069 2319 959 1747 
Q 825 1059 994 731 
Q 1169 397 1547 397 
Q 1966 397 2319 1063 
L 2619 1628 
z
M 2166 3578 
Q 3141 3594 3128 2584 
Q 3128 2584 3616 3500 
L 4128 3500 
L 3119 1603 
L 3109 919 
Q 3109 766 3194 638 
Q 3291 488 3391 488 
L 3669 488 
L 3575 0 
L 3228 0 
Q 2934 0 2722 263 
Q 2622 394 2619 669 
Q 2416 334 2066 50 
Q 1900 -81 1453 -78 
Q 722 -72 456 397 
Q 184 884 353 1747 
Q 534 2675 1009 3097 
Q 1544 3569 2166 3578 
z
" transform="scale(0.015625)"/>
      <path id="DejaVuSans-3d" d="M 678 2906 
L 4684 2906 
L 4684 2381 
L 678 2381 
L 678 2906 
z
M 678 1631 
L 4684 1631 
L 4684 1100 
L 678 1100 
L 678 1631 
z
" transform="scale(0.015625)"/>
      <path id="DejaVuSans-61" d="M 2194 1759 
Q 1497 1759 1228 1600 
Q 959 1441 959 1056 
Q 959 750 1161 570 
Q 1363 391 1709 391 
Q 2188 391 2477 730 
Q 2766 1069 2766 1631 
L 2766 1759 
L 2194 1759 
z
M 3341 1997 
L 3341 0 
L 2766 0 
L 2766 531 
Q 2569 213 2275 61 
Q 1981 -91 1556 -91 
Q 1019 -91 701 211 
Q 384 513 384 1019 
Q 384 1609 779 1909 
Q 1175 2209 1959 2209 
L 2766 2209 
L 2766 2266 
Q 2766 2663 2505 2880 
Q 2244 3097 1772 3097 
Q 1472 3097 1187 3025 
Q 903 2953 641 2809 
L 641 3341 
Q 956 3463 1253 3523 
Q 1550 3584 1831 3584 
Q 2591 3584 2966 3190 
Q 3341 2797 3341 1997 
z
" transform="scale(0.015625)"/>
      <path id="DejaVuSans-6e" d="M 3513 2113 
L 3513 0 
L 2938 0 
L 2938 2094 
Q 2938 2591 2744 2837 
Q 2550 3084 2163 3084 
Q 1697 3084 1428 2787 
Q 1159 2491 1159 1978 
L 1159 0 
L 581 0 
L 581 3500 
L 1159 3500 
L 1159 2956 
Q 1366 3272 1645 3428 
Q 1925 3584 2291 3584 
Q 2894 3584 3203 3211 
Q 3513 2838 3513 2113 
z
" transform="scale(0.015625)"/>
      <path id="DejaVuSans-64" d="M 2906 2969 
L 2906 4863 
L 3481 4863 
L 3481 0 
L 2906 0 
L 2906 525 
Q 2725 213 2448 61 
Q 2172 -91 1784 -91 
Q 1150 -91 751 415 
Q 353 922 353 1747 
Q 353 2572 751 3078 
Q 1150 3584 1784 3584 
Q 2172 3584 2448 3432 
Q 2725 3281 2906 2969 
z
M 947 1747 
Q 947 1113 1208 752 
Q 1469 391 1925 391 
Q 2381 391 2643 752 
Q 2906 1113 2906 1747 
Q 2906 2381 2643 2742 
Q 2381 3103 1925 3103 
Q 1469 3103 1208 2742 
Q 947 2381 947 1747 
z
" transform="scale(0.015625)"/>
      <path id="DejaVuSans-Oblique-52" d="M 1613 4147 
L 1294 2491 
L 2106 2491 
Q 2584 2491 2879 2755 
Q 3175 3019 3175 3444 
Q 3175 3784 2976 3965 
Q 2778 4147 2406 4147 
L 1613 4147 
z
M 2772 2241 
Q 2972 2194 3105 2009 
Q 3238 1825 3413 1275 
L 3809 0 
L 3144 0 
L 2778 1197 
Q 2638 1659 2453 1815 
Q 2269 1972 1888 1972 
L 1191 1972 
L 806 0 
L 172 0 
L 1081 4666 
L 2503 4666 
Q 3150 4666 3495 4373 
Q 3841 4081 3841 3531 
Q 3841 3044 3547 2687 
Q 3253 2331 2772 2241 
z
" transform="scale(0.015625)"/>
      <path id="DejaVuSans-Oblique-65" d="M 3078 2063 
Q 3088 2113 3092 2166 
Q 3097 2219 3097 2272 
Q 3097 2653 2873 2875 
Q 2650 3097 2266 3097 
Q 1838 3097 1509 2826 
Q 1181 2556 1013 2059 
L 3078 2063 
z
M 3578 1613 
L 903 1613 
Q 884 1494 878 1425 
Q 872 1356 872 1306 
Q 872 872 1139 634 
Q 1406 397 1894 397 
Q 2269 397 2603 481 
Q 2938 566 3225 728 
L 3116 159 
Q 2806 34 2476 -28 
Q 2147 -91 1806 -91 
Q 1078 -91 686 257 
Q 294 606 294 1247 
Q 294 1794 489 2264 
Q 684 2734 1063 3103 
Q 1306 3334 1642 3459 
Q 1978 3584 2356 3584 
Q 2950 3584 3301 3228 
Q 3653 2872 3653 2272 
Q 3653 2128 3634 1964 
Q 3616 1800 3578 1613 
z
" transform="scale(0.015625)"/>
      <path id="DejaVuSans-Oblique-4d" d="M 1081 4666 
L 2028 4666 
L 2572 1522 
L 4378 4666 
L 5350 4666 
L 4441 0 
L 3828 0 
L 4622 4091 
L 2791 897 
L 2175 897 
L 1581 4103 
L 788 0 
L 172 0 
L 1081 4666 
z
" transform="scale(0.015625)"/>
     </defs>
     <use xlink:href="#DejaVuSans-52" transform="translate(0 0.015625)"/>
     <use xlink:href="#DejaVuSans-65" transform="translate(69.482422 0.015625)"/>
     <use xlink:href="#DejaVuSans-73" transform="translate(131.005859 0.015625)"/>
     <use xlink:href="#DejaVuSans-75" transform="translate(183.105469 0.015625)"/>
     <use xlink:href="#DejaVuSans-6c" transform="translate(246.484375 0.015625)"/>
     <use xlink:href="#DejaVuSans-74" transform="translate(274.267578 0.015625)"/>
     <use xlink:href="#DejaVuSans-20" transform="translate(313.476562 0.015625)"/>
     <use xlink:href="#DejaVuSans-70" transform="translate(345.263672 0.015625)"/>
     <use xlink:href="#DejaVuSans-6c" transform="translate(408.740234 0.015625)"/>
     <use xlink:href="#DejaVuSans-6f" transform="translate(436.523438 0.015625)"/>
     <use xlink:href="#DejaVuSans-74" transform="translate(497.705078 0.015625)"/>
     <use xlink:href="#DejaVuSans-20" transform="translate(536.914062 0.015625)"/>
     <use xlink:href="#DejaVuSans-66" transform="translate(568.701172 0.015625)"/>
     <use xlink:href="#DejaVuSans-6f" transform="translate(603.90625 0.015625)"/>
     <use xlink:href="#DejaVuSans-72" transform="translate(665.087891 0.015625)"/>
     <use xlink:href="#DejaVuSans-20" transform="translate(706.201172 0.015625)"/>
     <use xlink:href="#DejaVuSans-Oblique-3b1" transform="translate(737.988281 0.015625)"/>
     <use xlink:href="#DejaVuSans-3d" transform="translate(823.388672 0.015625)"/>
     <use xlink:href="#DejaVuSans-2212" transform="translate(946.142578 0.015625)"/>
     <use xlink:href="#DejaVuSans-32" transform="translate(1049.414062 0.015625)"/>
     <use xlink:href="#DejaVuSans-20" transform="translate(1113.037109 0.015625)"/>
     <use xlink:href="#DejaVuSans-61" transform="translate(1144.824219 0.015625)"/>
     <use xlink:href="#DejaVuSans-6e" transform="translate(1206.103516 0.015625)"/>
     <use xlink:href="#DejaVuSans-64" transform="translate(1269.482422 0.015625)"/>
     <use xlink:href="#DejaVuSans-20" transform="translate(1332.958984 0.015625)"/>
     <use xlink:href="#DejaVuSans-Oblique-52" transform="translate(1364.746094 0.015625)"/>
     <use xlink:href="#DejaVuSans-Oblique-65" transform="translate(1434.228516 0.015625)"/>
     <use xlink:href="#DejaVuSans-3d" transform="translate(1515.234375 0.015625)"/>
     <use xlink:href="#DejaVuSans-31" transform="translate(1618.505859 0.015625)"/>
     <use xlink:href="#DejaVuSans-30" transform="translate(1682.128906 0.015625)"/>
     <use xlink:href="#DejaVuSans-30" transform="translate(1745.751953 0.015625)"/>
     <use xlink:href="#DejaVuSans-30" transform="translate(1809.375 0.015625)"/>
     <use xlink:href="#DejaVuSans-30" transform="translate(1872.998047 0.015625)"/>
     <use xlink:href="#DejaVuSans-30" transform="translate(1936.621094 0.015625)"/>
     <use xlink:href="#DejaVuSans-20" transform="translate(2000.244141 0.015625)"/>
     <use xlink:href="#DejaVuSans-61" transform="translate(2032.03125 0.015625)"/>
     <use xlink:href="#DejaVuSans-6e" transform="translate(2093.310547 0.015625)"/>
     <use xlink:href="#DejaVuSans-64" transform="translate(2156.689453 0.015625)"/>
     <use xlink:href="#DejaVuSans-20" transform="translate(2220.166016 0.015625)"/>
     <use xlink:href="#DejaVuSans-Oblique-4d" transform="translate(2251.953125 0.015625)"/>
     <use xlink:href="#DejaVuSans-3d" transform="translate(2357.714844 0.015625)"/>
     <use xlink:href="#DejaVuSans-30" transform="translate(2460.986328 0.015625)"/>
     <use xlink:href="#DejaVuSans-2e" transform="translate(2524.609375 0.015625)"/>
     <use xlink:href="#DejaVuSans-31" transform="translate(2556.396484 0.015625)"/>
    </g>
   </g>
   <g id="legend_1">
    <g id="patch_7">
     <path d="M 531.760938 89.0325 
L 714.760938 89.0325 
Q 716.760938 89.0325 716.760938 87.0325 
L 716.760938 29.32 
Q 716.760938 27.32 714.760938 27.32 
L 531.760938 27.32 
Q 529.760938 27.32 529.760938 29.32 
L 529.760938 87.0325 
Q 529.760938 89.0325 531.760938 89.0325 
z
" style="fill: #ffffff; opacity: 0.8; stroke: #cccccc; stroke-linejoin: miter"/>
    </g>
    <g id="line2d_39">
     <path d="M 533.760938 35.418437 
L 543.760938 35.418437 
L 553.760938 35.418437 
" style="fill: none; stroke: #1f77b4; stroke-width: 1.5; stroke-linecap: square"/>
    </g>
    <g id="text_21">
     <!-- $\alpha = -2$; $Re = 100000$; $M = 0.1$ -->
     <g transform="translate(561.760938 38.918437) scale(0.1 -0.1)">
      <defs>
       <path id="DejaVuSans-3b" d="M 750 3309 
L 1409 3309 
L 1409 2516 
L 750 2516 
L 750 3309 
z
M 750 794 
L 1409 794 
L 1409 256 
L 897 -744 
L 494 -744 
L 750 256 
L 750 794 
z
" transform="scale(0.015625)"/>
      </defs>
      <use xlink:href="#DejaVuSans-Oblique-3b1" transform="translate(0 0.78125)"/>
      <use xlink:href="#DejaVuSans-3d" transform="translate(85.400391 0.78125)"/>
      <use xlink:href="#DejaVuSans-2212" transform="translate(208.154297 0.78125)"/>
      <use xlink:href="#DejaVuSans-32" transform="translate(311.425781 0.78125)"/>
      <use xlink:href="#DejaVuSans-3b" transform="translate(375.048828 0.78125)"/>
      <use xlink:href="#DejaVuSans-20" transform="translate(408.740234 0.78125)"/>
      <use xlink:href="#DejaVuSans-Oblique-52" transform="translate(440.527344 0.78125)"/>
      <use xlink:href="#DejaVuSans-Oblique-65" transform="translate(510.009766 0.78125)"/>
      <use xlink:href="#DejaVuSans-3d" transform="translate(591.015625 0.78125)"/>
      <use xlink:href="#DejaVuSans-31" transform="translate(694.287109 0.78125)"/>
      <use xlink:href="#DejaVuSans-30" transform="translate(757.910156 0.78125)"/>
      <use xlink:href="#DejaVuSans-30" transform="translate(821.533203 0.78125)"/>
      <use xlink:href="#DejaVuSans-30" transform="translate(885.15625 0.78125)"/>
      <use xlink:href="#DejaVuSans-30" transform="translate(948.779297 0.78125)"/>
      <use xlink:href="#DejaVuSans-30" transform="translate(1012.402344 0.78125)"/>
      <use xlink:href="#DejaVuSans-3b" transform="translate(1076.025391 0.78125)"/>
      <use xlink:href="#DejaVuSans-20" transform="translate(1109.716797 0.78125)"/>
      <use xlink:href="#DejaVuSans-Oblique-4d" transform="translate(1141.503906 0.78125)"/>
      <use xlink:href="#DejaVuSans-3d" transform="translate(1247.265625 0.78125)"/>
      <use xlink:href="#DejaVuSans-30" transform="translate(1350.537109 0.78125)"/>
      <use xlink:href="#DejaVuSans-2e" transform="translate(1414.160156 0.78125)"/>
      <use xlink:href="#DejaVuSans-31" transform="translate(1445.947266 0.78125)"/>
     </g>
    </g>
    <g id="line2d_40">
     <path d="M 533.760938 50.096563 
L 543.760938 50.096563 
L 553.760938 50.096563 
" style="fill: none; stroke: #ff7f0e; stroke-width: 1.5; stroke-linecap: square"/>
    </g>
    <g id="text_22">
     <!-- $\alpha = 0$; $Re = 100000$; $M = 0.1$ -->
     <g transform="translate(561.760938 53.596563) scale(0.1 -0.1)">
      <use xlink:href="#DejaVuSans-Oblique-3b1" transform="translate(0 0.78125)"/>
      <use xlink:href="#DejaVuSans-3d" transform="translate(85.400391 0.78125)"/>
      <use xlink:href="#DejaVuSans-30" transform="translate(188.671875 0.78125)"/>
      <use xlink:href="#DejaVuSans-3b" transform="translate(252.294922 0.78125)"/>
      <use xlink:href="#DejaVuSans-20" transform="translate(285.986328 0.78125)"/>
      <use xlink:href="#DejaVuSans-Oblique-52" transform="translate(317.773438 0.78125)"/>
      <use xlink:href="#DejaVuSans-Oblique-65" transform="translate(387.255859 0.78125)"/>
      <use xlink:href="#DejaVuSans-3d" transform="translate(468.261719 0.78125)"/>
      <use xlink:href="#DejaVuSans-31" transform="translate(571.533203 0.78125)"/>
      <use xlink:href="#DejaVuSans-30" transform="translate(635.15625 0.78125)"/>
      <use xlink:href="#DejaVuSans-30" transform="translate(698.779297 0.78125)"/>
      <use xlink:href="#DejaVuSans-30" transform="translate(762.402344 0.78125)"/>
      <use xlink:href="#DejaVuSans-30" transform="translate(826.025391 0.78125)"/>
      <use xlink:href="#DejaVuSans-30" transform="translate(889.648438 0.78125)"/>
      <use xlink:href="#DejaVuSans-3b" transform="translate(953.271484 0.78125)"/>
      <use xlink:href="#DejaVuSans-20" transform="translate(986.962891 0.78125)"/>
      <use xlink:href="#DejaVuSans-Oblique-4d" transform="translate(1018.75 0.78125)"/>
      <use xlink:href="#DejaVuSans-3d" transform="translate(1124.511719 0.78125)"/>
      <use xlink:href="#DejaVuSans-30" transform="translate(1227.783203 0.78125)"/>
      <use xlink:href="#DejaVuSans-2e" transform="translate(1291.40625 0.78125)"/>
      <use xlink:href="#DejaVuSans-31" transform="translate(1323.193359 0.78125)"/>
     </g>
    </g>
    <g id="line2d_41">
     <path d="M 533.760938 64.774687 
L 543.760938 64.774687 
L 553.760938 64.774687 
" style="fill: none; stroke: #2ca02c; stroke-width: 1.5; stroke-linecap: square"/>
    </g>
    <g id="text_23">
     <!-- $\alpha = 4$; $Re = 100000$; $M = 0.1$ -->
     <g transform="translate(561.760938 68.274687) scale(0.1 -0.1)">
      <defs>
       <path id="DejaVuSans-34" d="M 2419 4116 
L 825 1625 
L 2419 1625 
L 2419 4116 
z
M 2253 4666 
L 3047 4666 
L 3047 1625 
L 3713 1625 
L 3713 1100 
L 3047 1100 
L 3047 0 
L 2419 0 
L 2419 1100 
L 313 1100 
L 313 1709 
L 2253 4666 
z
" transform="scale(0.015625)"/>
      </defs>
      <use xlink:href="#DejaVuSans-Oblique-3b1" transform="translate(0 0.78125)"/>
      <use xlink:href="#DejaVuSans-3d" transform="translate(85.400391 0.78125)"/>
      <use xlink:href="#DejaVuSans-34" transform="translate(188.671875 0.78125)"/>
      <use xlink:href="#DejaVuSans-3b" transform="translate(252.294922 0.78125)"/>
      <use xlink:href="#DejaVuSans-20" transform="translate(285.986328 0.78125)"/>
      <use xlink:href="#DejaVuSans-Oblique-52" transform="translate(317.773438 0.78125)"/>
      <use xlink:href="#DejaVuSans-Oblique-65" transform="translate(387.255859 0.78125)"/>
      <use xlink:href="#DejaVuSans-3d" transform="translate(468.261719 0.78125)"/>
      <use xlink:href="#DejaVuSans-31" transform="translate(571.533203 0.78125)"/>
      <use xlink:href="#DejaVuSans-30" transform="translate(635.15625 0.78125)"/>
      <use xlink:href="#DejaVuSans-30" transform="translate(698.779297 0.78125)"/>
      <use xlink:href="#DejaVuSans-30" transform="translate(762.402344 0.78125)"/>
      <use xlink:href="#DejaVuSans-30" transform="translate(826.025391 0.78125)"/>
      <use xlink:href="#DejaVuSans-30" transform="translate(889.648438 0.78125)"/>
      <use xlink:href="#DejaVuSans-3b" transform="translate(953.271484 0.78125)"/>
      <use xlink:href="#DejaVuSans-20" transform="translate(986.962891 0.78125)"/>
      <use xlink:href="#DejaVuSans-Oblique-4d" transform="translate(1018.75 0.78125)"/>
      <use xlink:href="#DejaVuSans-3d" transform="translate(1124.511719 0.78125)"/>
      <use xlink:href="#DejaVuSans-30" transform="translate(1227.783203 0.78125)"/>
      <use xlink:href="#DejaVuSans-2e" transform="translate(1291.40625 0.78125)"/>
      <use xlink:href="#DejaVuSans-31" transform="translate(1323.193359 0.78125)"/>
     </g>
    </g>
    <g id="line2d_42">
     <path d="M 533.760938 79.452812 
L 543.760938 79.452812 
L 553.760938 79.452812 
" style="fill: none; stroke: #d62728; stroke-width: 1.5; stroke-linecap: square"/>
    </g>
    <g id="text_24">
     <!-- $\alpha = 6$; $Re = 100000$; $M = 0.1$ -->
     <g transform="translate(561.760938 82.952812) scale(0.1 -0.1)">
      <defs>
       <path id="DejaVuSans-36" d="M 2113 2584 
Q 1688 2584 1439 2293 
Q 1191 2003 1191 1497 
Q 1191 994 1439 701 
Q 1688 409 2113 409 
Q 2538 409 2786 701 
Q 3034 994 3034 1497 
Q 3034 2003 2786 2293 
Q 2538 2584 2113 2584 
z
M 3366 4563 
L 3366 3988 
Q 3128 4100 2886 4159 
Q 2644 4219 2406 4219 
Q 1781 4219 1451 3797 
Q 1122 3375 1075 2522 
Q 1259 2794 1537 2939 
Q 1816 3084 2150 3084 
Q 2853 3084 3261 2657 
Q 3669 2231 3669 1497 
Q 3669 778 3244 343 
Q 2819 -91 2113 -91 
Q 1303 -91 875 529 
Q 447 1150 447 2328 
Q 447 3434 972 4092 
Q 1497 4750 2381 4750 
Q 2619 4750 2861 4703 
Q 3103 4656 3366 4563 
z
" transform="scale(0.015625)"/>
      </defs>
      <use xlink:href="#DejaVuSans-Oblique-3b1" transform="translate(0 0.78125)"/>
      <use xlink:href="#DejaVuSans-3d" transform="translate(85.400391 0.78125)"/>
      <use xlink:href="#DejaVuSans-36" transform="translate(188.671875 0.78125)"/>
      <use xlink:href="#DejaVuSans-3b" transform="translate(252.294922 0.78125)"/>
      <use xlink:href="#DejaVuSans-20" transform="translate(285.986328 0.78125)"/>
      <use xlink:href="#DejaVuSans-Oblique-52" transform="translate(317.773438 0.78125)"/>
      <use xlink:href="#DejaVuSans-Oblique-65" transform="translate(387.255859 0.78125)"/>
      <use xlink:href="#DejaVuSans-3d" transform="translate(468.261719 0.78125)"/>
      <use xlink:href="#DejaVuSans-31" transform="translate(571.533203 0.78125)"/>
      <use xlink:href="#DejaVuSans-30" transform="translate(635.15625 0.78125)"/>
      <use xlink:href="#DejaVuSans-30" transform="translate(698.779297 0.78125)"/>
      <use xlink:href="#DejaVuSans-30" transform="translate(762.402344 0.78125)"/>
      <use xlink:href="#DejaVuSans-30" transform="translate(826.025391 0.78125)"/>
      <use xlink:href="#DejaVuSans-30" transform="translate(889.648438 0.78125)"/>
      <use xlink:href="#DejaVuSans-3b" transform="translate(953.271484 0.78125)"/>
      <use xlink:href="#DejaVuSans-20" transform="translate(986.962891 0.78125)"/>
      <use xlink:href="#DejaVuSans-Oblique-4d" transform="translate(1018.75 0.78125)"/>
      <use xlink:href="#DejaVuSans-3d" transform="translate(1124.511719 0.78125)"/>
      <use xlink:href="#DejaVuSans-30" transform="translate(1227.783203 0.78125)"/>
      <use xlink:href="#DejaVuSans-2e" transform="translate(1291.40625 0.78125)"/>
      <use xlink:href="#DejaVuSans-31" transform="translate(1323.193359 0.78125)"/>
     </g>
    </g>
   </g>
  </g>
 </g>
 <defs>
  <clipPath id="pd971aedd0a">
   <rect x="52.160938" y="22.32" width="669.6" height="443.52"/>
  </clipPath>
 </defs>
</svg>
